<svg width="12" height="12" viewBox="0 0 12 12" fill="none" xmlns="http://www.w3.org/2000/svg">
<path d="M1.3335 5.41675C1.48218 5.41691 1.62519 5.47384 1.7333 5.57591C1.84141 5.67798 1.90647 5.81747 1.91518 5.9659C1.9239 6.11432 1.87561 6.26047 1.78018 6.37448C1.68475 6.4885 1.54939 6.56177 1.40175 6.57933L1.3335 6.58342H0.750168C0.601488 6.58325 0.458482 6.52632 0.350369 6.42425C0.242257 6.32219 0.177197 6.18269 0.168484 6.03427C0.159771 5.88584 0.208061 5.73969 0.303489 5.62568C0.398916 5.51167 0.534278 5.43839 0.681917 5.42083L0.750168 5.41675H1.3335Z" fill="#90959D"/>
<path d="M6.00017 0.166748C6.14305 0.166767 6.28095 0.219222 6.38772 0.314165C6.49449 0.409108 6.56271 0.539935 6.57942 0.681831L6.58351 0.750081V1.33341C6.58334 1.48209 6.52641 1.6251 6.42434 1.73321C6.32228 1.84133 6.18278 1.90639 6.03436 1.9151C5.88593 1.92381 5.73978 1.87552 5.62577 1.78009C5.51176 1.68467 5.43848 1.5493 5.42092 1.40166L5.41684 1.33341V0.750081C5.41684 0.595372 5.4783 0.446999 5.58769 0.337602C5.69709 0.228206 5.84546 0.166748 6.00017 0.166748Z" fill="#90959D"/>
<path d="M11.2502 5.41675C11.3988 5.41691 11.5419 5.47384 11.65 5.57591C11.7581 5.67798 11.8231 5.81747 11.8319 5.9659C11.8406 6.11432 11.7923 6.26047 11.6968 6.37448C11.6014 6.4885 11.4661 6.56177 11.3184 6.57933L11.2502 6.58342H10.6668C10.5182 6.58325 10.3751 6.52632 10.267 6.42425C10.1589 6.32219 10.0939 6.18269 10.0852 6.03427C10.0764 5.88584 10.1247 5.73969 10.2202 5.62568C10.3156 5.51167 10.4509 5.43839 10.5986 5.42083L10.6668 5.41675H11.2502Z" fill="#90959D"/>
<path d="M1.85443 1.85433C1.95487 1.7539 2.08851 1.69356 2.23028 1.68465C2.37204 1.67573 2.51219 1.71885 2.62443 1.80592L2.67926 1.85433L3.08759 2.26267C3.19221 2.36764 3.25295 2.5085 3.25748 2.65664C3.262 2.80478 3.20997 2.94908 3.11195 3.06025C3.01393 3.17141 2.87727 3.2411 2.72973 3.25515C2.58219 3.2692 2.43484 3.22657 2.31759 3.13592L2.26276 3.0875L1.85443 2.67917C1.74507 2.56978 1.68363 2.42143 1.68363 2.26675C1.68363 2.11207 1.74507 1.96373 1.85443 1.85433Z" fill="#90959D"/>
<path d="M9.32108 1.85433C9.42606 1.74971 9.56692 1.68897 9.71506 1.68445C9.86319 1.67992 10.0075 1.73196 10.1187 1.82998C10.2298 1.92799 10.2995 2.06465 10.3136 2.21219C10.3276 2.35973 10.285 2.50708 10.1943 2.62433L10.1459 2.67916L9.73758 3.0875C9.63261 3.19212 9.49175 3.25286 9.34361 3.25738C9.19547 3.2619 9.05117 3.20987 8.94 3.11185C8.82884 3.01383 8.75915 2.87718 8.7451 2.72964C8.73104 2.5821 8.77368 2.43474 8.86433 2.3175L8.91275 2.26266L9.32108 1.85433Z" fill="#90959D"/>
<path d="M7.16684 9.50008C7.32155 9.50008 7.46992 9.56154 7.57932 9.67094C7.68871 9.78033 7.75017 9.92871 7.75017 10.0834C7.75017 10.5475 7.5658 10.9927 7.23761 11.3209C6.90942 11.649 6.4643 11.8334 6.00017 11.8334C5.53604 11.8334 5.09092 11.649 4.76274 11.3209C4.43455 10.9927 4.25017 10.5475 4.25017 10.0834C4.25019 9.94054 4.30265 9.80264 4.39759 9.69587C4.49253 9.5891 4.62336 9.52088 4.76526 9.50417L4.83351 9.50008H7.16684Z" fill="#90959D"/>
<path d="M6.00017 2.50008C6.73476 2.50008 7.45073 2.73121 8.04666 3.16073C8.64259 3.59026 9.08827 4.19639 9.32056 4.89328C9.55286 5.59018 9.56 6.34249 9.34097 7.04367C9.12194 7.74484 8.68784 8.35933 8.10017 8.80008C8.01977 8.86047 7.92513 8.89905 7.82542 8.91208L7.75017 8.91675H4.25017C4.12396 8.91675 4.00115 8.87581 3.90017 8.80008C3.3125 8.35933 2.87841 7.74484 2.65938 7.04367C2.44034 6.34249 2.44748 5.59018 2.67978 4.89328C2.91208 4.19639 3.35776 3.59026 3.95369 3.16073C4.54962 2.73121 5.26558 2.50008 6.00017 2.50008Z" fill="#90959D"/>
<path d="M1.3335 5.41675C1.48218 5.41691 1.62519 5.47384 1.7333 5.57591C1.84141 5.67798 1.90647 5.81747 1.91518 5.9659C1.9239 6.11432 1.87561 6.26047 1.78018 6.37448C1.68475 6.4885 1.54939 6.56177 1.40175 6.57933L1.3335 6.58342H0.750168C0.601488 6.58325 0.458482 6.52632 0.350369 6.42425C0.242257 6.32219 0.177197 6.18269 0.168484 6.03427C0.159771 5.88584 0.208061 5.73969 0.303489 5.62568C0.398916 5.51167 0.534278 5.43839 0.681917 5.42083L0.750168 5.41675H1.3335Z" stroke="#90959D"/>
<path d="M6.00017 0.166748C6.14305 0.166767 6.28095 0.219222 6.38772 0.314165C6.49449 0.409108 6.56271 0.539935 6.57942 0.681831L6.58351 0.750081V1.33341C6.58334 1.48209 6.52641 1.6251 6.42434 1.73321C6.32228 1.84133 6.18278 1.90639 6.03436 1.9151C5.88593 1.92381 5.73978 1.87552 5.62577 1.78009C5.51176 1.68467 5.43848 1.5493 5.42092 1.40166L5.41684 1.33341V0.750081C5.41684 0.595372 5.4783 0.446999 5.58769 0.337602C5.69709 0.228206 5.84546 0.166748 6.00017 0.166748Z" stroke="#90959D"/>
<path d="M11.2502 5.41675C11.3988 5.41691 11.5419 5.47384 11.65 5.57591C11.7581 5.67798 11.8231 5.81747 11.8319 5.9659C11.8406 6.11432 11.7923 6.26047 11.6968 6.37448C11.6014 6.4885 11.4661 6.56177 11.3184 6.57933L11.2502 6.58342H10.6668C10.5182 6.58325 10.3751 6.52632 10.267 6.42425C10.1589 6.32219 10.0939 6.18269 10.0852 6.03427C10.0764 5.88584 10.1247 5.73969 10.2202 5.62568C10.3156 5.51167 10.4509 5.43839 10.5986 5.42083L10.6668 5.41675H11.2502Z" stroke="#90959D"/>
<path d="M1.85443 1.85433C1.95487 1.7539 2.08851 1.69356 2.23028 1.68465C2.37204 1.67573 2.51219 1.71885 2.62443 1.80592L2.67926 1.85433L3.08759 2.26267C3.19221 2.36764 3.25295 2.5085 3.25748 2.65664C3.262 2.80478 3.20997 2.94908 3.11195 3.06025C3.01393 3.17141 2.87727 3.2411 2.72973 3.25515C2.58219 3.2692 2.43484 3.22657 2.31759 3.13592L2.26276 3.0875L1.85443 2.67917C1.74507 2.56978 1.68363 2.42143 1.68363 2.26675C1.68363 2.11207 1.74507 1.96373 1.85443 1.85433Z" stroke="#90959D"/>
<path d="M9.32108 1.85433C9.42606 1.74971 9.56692 1.68897 9.71506 1.68445C9.86319 1.67992 10.0075 1.73196 10.1187 1.82998C10.2298 1.92799 10.2995 2.06465 10.3136 2.21219C10.3276 2.35973 10.285 2.50708 10.1943 2.62433L10.1459 2.67916L9.73758 3.0875C9.63261 3.19212 9.49175 3.25286 9.34361 3.25738C9.19547 3.2619 9.05117 3.20987 8.94 3.11185C8.82884 3.01383 8.75915 2.87718 8.7451 2.72964C8.73104 2.5821 8.77368 2.43474 8.86433 2.3175L8.91275 2.26266L9.32108 1.85433Z" stroke="#90959D"/>
<path d="M7.16684 9.50008C7.32155 9.50008 7.46992 9.56154 7.57932 9.67094C7.68871 9.78033 7.75017 9.92871 7.75017 10.0834C7.75017 10.5475 7.5658 10.9927 7.23761 11.3209C6.90942 11.649 6.4643 11.8334 6.00017 11.8334C5.53604 11.8334 5.09092 11.649 4.76274 11.3209C4.43455 10.9927 4.25017 10.5475 4.25017 10.0834C4.25019 9.94054 4.30265 9.80264 4.39759 9.69587C4.49253 9.5891 4.62336 9.52088 4.76526 9.50417L4.83351 9.50008H7.16684Z" stroke="#90959D"/>
<path d="M6.00017 2.50008C6.73476 2.50008 7.45073 2.73121 8.04666 3.16073C8.64259 3.59026 9.08827 4.19639 9.32056 4.89328C9.55286 5.59018 9.56 6.34249 9.34097 7.04367C9.12194 7.74484 8.68784 8.35933 8.10017 8.80008C8.01977 8.86047 7.92513 8.89905 7.82542 8.91208L7.75017 8.91675H4.25017C4.12396 8.91675 4.00115 8.87581 3.90017 8.80008C3.3125 8.35933 2.87841 7.74484 2.65938 7.04367C2.44034 6.34249 2.44748 5.59018 2.67978 4.89328C2.91208 4.19639 3.35776 3.59026 3.95369 3.16073C4.54962 2.73121 5.26558 2.50008 6.00017 2.50008Z" stroke="#90959D"/>
</svg>
