<svg width="12" height="12" viewBox="0 0 12 12" fill="none" xmlns="http://www.w3.org/2000/svg">
<path d="M8.9165 0.948352C9.79633 1.45635 10.5282 2.18533 11.0397 3.06311C11.5512 3.9409 11.8246 4.93705 11.8328 5.95297C11.841 6.96888 11.5838 7.96932 11.0865 8.85526C10.5893 9.74119 9.86923 10.4819 8.99773 11.004C8.12623 11.5262 7.13347 11.8117 6.11773 11.8322C5.10199 11.8528 4.09849 11.6077 3.20658 11.1212C2.31466 10.6348 1.56526 9.92382 1.03256 9.05874C0.499857 8.19365 0.202326 7.20443 0.169421 6.18902L0.166504 6.00002L0.169421 5.81102C0.202089 4.8036 0.49524 3.82183 1.02029 2.96143C1.54535 2.10103 2.28439 1.39137 3.16536 0.901617C4.04633 0.411868 5.03917 0.15875 6.04709 0.166941C7.05501 0.175131 8.04361 0.444351 8.9165 0.948352ZM5.13125 4.33169C5.00903 4.25893 4.86444 4.23334 4.72468 4.25972C4.58491 4.2861 4.4596 4.36264 4.37231 4.47494C4.28502 4.58724 4.24177 4.72757 4.25069 4.86952C4.25961 5.01148 4.32009 5.14528 4.42075 5.24577L5.17442 6.00002L4.42075 6.75427L4.37234 6.8091C4.28168 6.92635 4.23905 7.0737 4.2531 7.22124C4.26716 7.36878 4.33684 7.50544 4.44801 7.60346C4.55917 7.70148 4.70348 7.75351 4.85161 7.74898C4.99975 7.74446 5.14061 7.68372 5.24559 7.5791L5.99984 6.82544L6.75409 7.5791L6.80892 7.62752C6.92617 7.71817 7.07352 7.76081 7.22106 7.74675C7.3686 7.7327 7.50526 7.66301 7.60328 7.55185C7.70129 7.44068 7.75333 7.29638 7.7488 7.14824C7.74428 7.0001 7.68354 6.85924 7.57892 6.75427L6.82525 6.00002L7.57892 5.24577L7.62734 5.19094C7.71799 5.07369 7.76062 4.92633 7.74657 4.7788C7.73252 4.63126 7.66283 4.4946 7.55167 4.39658C7.4405 4.29856 7.2962 4.24653 7.14806 4.25105C6.99992 4.25558 6.85906 4.31632 6.75409 4.42094L5.99984 5.1746L5.24559 4.42094L5.19075 4.37252L5.13125 4.33169Z" fill="#DD4040"/>
</svg>
