<svg width="14" height="14" viewBox="0 0 14 14" fill="none" xmlns="http://www.w3.org/2000/svg">
<path d="M10.3335 1.22664C11.339 1.80721 12.1755 2.64032 12.76 3.6435C13.3446 4.64669 13.6571 5.78515 13.6664 6.9462C13.6758 8.10724 13.3818 9.2506 12.8135 10.2631C12.2452 11.2756 11.4223 12.1221 10.4263 12.7188C9.43032 13.3156 8.29574 13.6419 7.1349 13.6653C5.97405 13.6888 4.8272 13.4087 3.80787 12.8528C2.78854 12.2968 1.93208 11.4843 1.32327 10.4956C0.714471 9.50697 0.374436 8.37644 0.33683 7.21597L0.333496 6.99997L0.33683 6.78397C0.374165 5.63263 0.709195 4.51061 1.30926 3.5273C1.90932 2.54399 2.75393 1.73294 3.76076 1.17322C4.76758 0.613511 5.90226 0.324234 7.05417 0.333594C8.20607 0.342955 9.3359 0.650634 10.3335 1.22664ZM7.00016 6.3333H6.3335L6.2555 6.33797C6.08677 6.35804 5.93207 6.44178 5.82301 6.57208C5.71395 6.70238 5.65876 6.86941 5.66871 7.03904C5.67867 7.20867 5.75303 7.36809 5.87658 7.48474C6.00014 7.60138 6.16358 7.66645 6.3335 7.66664V9.66663L6.33816 9.74464C6.35727 9.9068 6.43522 10.0563 6.55725 10.1648C6.67927 10.2733 6.83687 10.3333 7.00016 10.3333H7.66683L7.74483 10.3286C7.907 10.3095 8.05651 10.2316 8.16502 10.1095C8.27353 9.98753 8.33347 9.82992 8.3335 9.66663L8.32883 9.58864C8.31128 9.43982 8.24411 9.30126 8.13815 9.19531C8.0322 9.08935 7.89364 9.02218 7.74483 9.00463L7.66683 8.99997V6.99997L7.66216 6.92197C7.64306 6.7598 7.5651 6.61028 7.44308 6.50178C7.32105 6.39327 7.16345 6.33332 7.00016 6.3333ZM7.00683 3.66664L6.92216 3.6713C6.75343 3.69137 6.59873 3.77511 6.48967 3.90541C6.38061 4.03572 6.32542 4.20274 6.33538 4.37237C6.34534 4.542 6.41969 4.70142 6.54325 4.81807C6.66681 4.93472 6.83024 4.99978 7.00016 4.99997L7.08483 4.9953C7.25356 4.97523 7.40826 4.89149 7.51732 4.76119C7.62638 4.63089 7.68157 4.46386 7.67161 4.29423C7.66165 4.1246 7.5873 3.96518 7.46374 3.84853C7.34018 3.73189 7.17675 3.66682 7.00683 3.66664Z" fill="#0BA2E8"/>
</svg>
