<svg width="12" height="12" viewBox="0 0 12 12" fill="none" xmlns="http://www.w3.org/2000/svg">
<path d="M8.9165 0.948352C9.79633 1.45635 10.5282 2.18533 11.0397 3.06311C11.5512 3.9409 11.8246 4.93705 11.8328 5.95297C11.841 6.96888 11.5838 7.96932 11.0865 8.85526C10.5893 9.74119 9.86923 10.4819 8.99773 11.004C8.12623 11.5262 7.13347 11.8117 6.11773 11.8322C5.10199 11.8528 4.09849 11.6077 3.20658 11.1212C2.31466 10.6348 1.56526 9.92382 1.03256 9.05874C0.499857 8.19365 0.202326 7.20443 0.169421 6.18902L0.166504 6.00002L0.169421 5.81102C0.202089 4.8036 0.49524 3.82183 1.02029 2.96143C1.54535 2.10103 2.28439 1.39137 3.16536 0.901617C4.04633 0.411868 5.03917 0.15875 6.04709 0.166941C7.05501 0.175131 8.04361 0.444351 8.9165 0.948352ZM8.16225 4.42094C8.06181 4.3205 7.92817 4.26016 7.7864 4.25125C7.64464 4.24234 7.50449 4.28546 7.39225 4.37252L7.33742 4.42094L5.4165 6.34127L4.66225 5.5876L4.60742 5.53919C4.49518 5.45218 4.35505 5.40912 4.21332 5.41806C4.07159 5.427 3.93799 5.48734 3.83757 5.58775C3.73716 5.68817 3.67682 5.82177 3.66788 5.9635C3.65894 6.10524 3.702 6.24536 3.789 6.3576L3.83742 6.41244L5.00409 7.5791L5.05892 7.62752C5.16122 7.70689 5.28702 7.74997 5.4165 7.74997C5.54598 7.74997 5.67179 7.70689 5.77409 7.62752L5.82892 7.5791L8.16225 5.24577L8.21067 5.19094C8.29773 5.0787 8.34085 4.93855 8.33194 4.79679C8.32302 4.65502 8.26269 4.52138 8.16225 4.42094Z" fill="#09A535"/>
</svg>
