<svg width="12" height="12" viewBox="0 0 12 12" fill="none" xmlns="http://www.w3.org/2000/svg">
<path d="M8.9165 0.948352C9.79633 1.45635 10.5282 2.18533 11.0397 3.06311C11.5512 3.9409 11.8246 4.93705 11.8328 5.95297C11.841 6.96888 11.5838 7.96932 11.0865 8.85526C10.5893 9.74119 9.86923 10.4819 8.99773 11.004C8.12623 11.5262 7.13347 11.8117 6.11773 11.8322C5.10199 11.8528 4.09849 11.6077 3.20658 11.1212C2.31466 10.6348 1.56526 9.92382 1.03256 9.05874C0.499857 8.19365 0.202326 7.20443 0.169421 6.18902L0.166504 6.00002L0.169421 5.81102C0.202089 4.8036 0.49524 3.82183 1.02029 2.96143C1.54535 2.10103 2.28439 1.39137 3.16536 0.901617C4.04633 0.411868 5.03917 0.15875 6.04709 0.166941C7.05501 0.175131 8.04361 0.444351 8.9165 0.948352ZM6.00567 7.75002L5.93159 7.7541C5.78981 7.77097 5.65914 7.83924 5.56433 7.946C5.46952 8.05275 5.41715 8.19057 5.41715 8.33335C5.41715 8.47613 5.46952 8.61395 5.56433 8.72071C5.65914 8.82746 5.78981 8.89574 5.93159 8.9126L5.99984 8.91669L6.07392 8.9126C6.2157 8.89574 6.34637 8.82746 6.44118 8.72071C6.53599 8.61395 6.58835 8.47613 6.58835 8.33335C6.58835 8.19057 6.53599 8.05275 6.44118 7.946C6.34637 7.83924 6.2157 7.77097 6.07392 7.7541L6.00567 7.75002ZM5.99984 3.08335C5.85696 3.08337 5.71906 3.13583 5.61229 3.23077C5.50552 3.32571 5.4373 3.45654 5.42059 3.59844L5.4165 3.66669V6.00002L5.42059 6.06827C5.43745 6.21005 5.50573 6.34072 5.61248 6.43553C5.71924 6.53034 5.85706 6.5827 5.99984 6.5827C6.14262 6.5827 6.28044 6.53034 6.38719 6.43553C6.49395 6.34072 6.56222 6.21005 6.57909 6.06827L6.58317 6.00002V3.66669L6.57909 3.59844C6.56237 3.45654 6.49416 3.32571 6.38739 3.23077C6.28062 3.13583 6.14271 3.08337 5.99984 3.08335Z" fill="#F1B504"/>
</svg>
