<svg width="20" height="20" viewBox="0 0 20 20" fill="none" xmlns="http://www.w3.org/2000/svg">
<g clip-path="url(#clip0_286_12563)">
<path d="M3.33371 9.16669C3.54611 9.16692 3.75041 9.24825 3.90485 9.39406C4.0593 9.53987 4.15224 9.73915 4.16469 9.95118C4.17714 10.1632 4.10815 10.372 3.97182 10.5349C3.8355 10.6978 3.64213 10.8024 3.43121 10.8275L3.33371 10.8334H2.50038C2.28798 10.8331 2.08369 10.7518 1.92924 10.606C1.77479 10.4602 1.68185 10.2609 1.6694 10.0489C1.65695 9.83682 1.72594 9.62804 1.86227 9.46516C1.99859 9.30228 2.19197 9.19761 2.40288 9.17252L2.50038 9.16669H3.33371Z" fill="#51555C"/>
<path d="M10.0003 1.66669C10.2044 1.66671 10.4014 1.74165 10.554 1.87728C10.7065 2.01292 10.8039 2.19981 10.8278 2.40252L10.8337 2.50002V3.33335C10.8334 3.54575 10.7521 3.75005 10.6063 3.90449C10.4605 4.05894 10.2612 4.15188 10.0492 4.16433C9.83713 4.17678 9.62834 4.10779 9.46547 3.97147C9.30259 3.83514 9.19791 3.64177 9.17283 3.43085L9.16699 3.33335V2.50002C9.16699 2.27901 9.25479 2.06704 9.41107 1.91076C9.56735 1.75448 9.77931 1.66669 10.0003 1.66669Z" fill="#51555C"/>
<path d="M17.4997 9.16669C17.7121 9.16692 17.9164 9.24825 18.0709 9.39406C18.2253 9.53987 18.3183 9.73915 18.3307 9.95118C18.3432 10.1632 18.2742 10.372 18.1378 10.5349C18.0015 10.6978 17.8081 10.8024 17.5972 10.8275L17.4997 10.8334H16.6664C16.454 10.8331 16.2497 10.7518 16.0953 10.606C15.9408 10.4602 15.8479 10.2609 15.8354 10.0489C15.823 9.83682 15.892 9.62804 16.0283 9.46516C16.1646 9.30228 16.358 9.19761 16.5689 9.17252L16.6664 9.16669H17.4997Z" fill="#51555C"/>
<path d="M4.07797 4.07749C4.22147 3.93401 4.41238 3.84781 4.61491 3.83508C4.81743 3.82234 5.01764 3.88394 5.17797 4.00832L5.25631 4.07749L5.83964 4.66082C5.9891 4.81078 6.07587 5.01201 6.08233 5.22364C6.08879 5.43526 6.01446 5.64141 5.87443 5.80022C5.7344 5.95902 5.53918 6.05857 5.32841 6.07865C5.11764 6.09873 4.90713 6.03783 4.73964 5.90832L4.66131 5.83915L4.07797 5.25582C3.92175 5.09955 3.83398 4.88762 3.83398 4.66665C3.83398 4.44568 3.92175 4.23376 4.07797 4.07749Z" fill="#51555C"/>
<path d="M14.7446 4.07749C14.8945 3.92803 15.0958 3.84126 15.3074 3.8348C15.519 3.82834 15.7252 3.90267 15.884 4.0427C16.0428 4.18273 16.1423 4.37795 16.1624 4.58872C16.1825 4.79949 16.1216 5.01 15.9921 5.17749L15.9229 5.25582L15.3396 5.83916C15.1896 5.98861 14.9884 6.07538 14.7767 6.08185C14.5651 6.08831 14.359 6.01398 14.2002 5.87395C14.0414 5.73392 13.9418 5.5387 13.9217 5.32793C13.9016 5.11716 13.9625 4.90665 14.0921 4.73916L14.1612 4.66082L14.7446 4.07749Z" fill="#51555C"/>
<path d="M11.6667 15C11.8877 15 12.0996 15.0878 12.2559 15.2441C12.4122 15.4004 12.5 15.6123 12.5 15.8333C12.5 16.4964 12.2366 17.1323 11.7678 17.6011C11.2989 18.0699 10.663 18.3333 10 18.3333C9.33696 18.3333 8.70107 18.0699 8.23223 17.6011C7.76339 17.1323 7.5 16.4964 7.5 15.8333C7.50003 15.6292 7.57496 15.4322 7.7106 15.2797C7.84623 15.1272 8.03312 15.0297 8.23583 15.0058L8.33333 15H11.6667Z" fill="#51555C"/>
<path d="M10 5C11.0494 5 12.0722 5.33019 12.9236 5.94379C13.7749 6.55739 14.4116 7.4233 14.7434 8.41886C15.0753 9.41442 15.0855 10.4892 14.7726 11.4908C14.4597 12.4925 13.8395 13.3704 13 14C12.8851 14.0863 12.7499 14.1414 12.6075 14.16L12.5 14.1667H7.5C7.31969 14.1667 7.14425 14.1082 7 14C6.16047 13.3704 5.54033 12.4925 5.22743 11.4908C4.91453 10.4892 4.92473 9.41442 5.25658 8.41886C5.58844 7.4233 6.22512 6.55739 7.07645 5.94379C7.92778 5.33019 8.95059 5 10 5Z" fill="#51555C"/>
</g>
<defs>
<clipPath id="clip0_286_12563">
<rect width="20" height="20" fill="white"/>
</clipPath>
</defs>
</svg>
