<svg width="20" height="20" viewBox="0 0 20 20" fill="none" xmlns="http://www.w3.org/2000/svg">
<path d="M14.167 2.78332C15.4239 3.50904 16.4694 4.55043 17.2002 5.80441C17.9309 7.05839 18.3215 8.48147 18.3332 9.93277C18.3449 11.3841 17.9774 12.8133 17.267 14.0789C16.5566 15.3445 15.528 16.4027 14.283 17.1486C13.038 17.8945 11.6198 18.3023 10.1687 18.3317C8.71768 18.3611 7.28412 18.011 6.00995 17.316C4.73579 16.6211 3.66522 15.6054 2.90421 14.3696C2.14321 13.1337 1.71817 11.7206 1.67116 10.27L1.66699 9.99999L1.67116 9.72999C1.71783 8.29082 2.13662 6.88829 2.88669 5.65915C3.63677 4.43001 4.69254 3.4162 5.95107 2.71656C7.2096 2.01692 8.62795 1.65532 10.0678 1.66702C11.5077 1.67872 12.92 2.06332 14.167 2.78332ZM8.75949 7.61666C8.58489 7.51272 8.37833 7.47616 8.17867 7.51385C7.979 7.55154 7.79998 7.66088 7.67528 7.82131C7.55058 7.98174 7.4888 8.1822 7.50154 8.38499C7.51429 8.58779 7.60069 8.77894 7.74449 8.92249L8.82116 9.99999L7.74449 11.0775L7.67533 11.1558C7.54582 11.3233 7.48492 11.5338 7.50499 11.7446C7.52507 11.9554 7.62462 12.1506 7.78343 12.2906C7.94223 12.4306 8.14838 12.505 8.36001 12.4985C8.57163 12.4921 8.77286 12.4053 8.92283 12.2558L10.0003 11.1792L11.0778 12.2558L11.1562 12.325C11.3237 12.4545 11.5342 12.5154 11.7449 12.4953C11.9557 12.4752 12.1509 12.3757 12.291 12.2169C12.431 12.0581 12.5053 11.8519 12.4988 11.6403C12.4924 11.4287 12.4056 11.2275 12.2562 11.0775L11.1795 9.99999L12.2562 8.92249L12.3253 8.84416C12.4548 8.67666 12.5157 8.46616 12.4957 8.25539C12.4756 8.04462 12.376 7.84939 12.2172 7.70937C12.0584 7.56934 11.8523 7.49501 11.6406 7.50147C11.429 7.50793 11.2278 7.5947 11.0778 7.74416L10.0003 8.82082L8.92283 7.74416L8.84449 7.67499L8.75949 7.61666Z" fill="#DD4040"/>
</svg>
