<svg width="20" height="20" viewBox="0 0 20 20" fill="none" xmlns="http://www.w3.org/2000/svg">
<path d="M10.0003 1.66669C14.6028 1.66669 18.3337 5.39752 18.3337 10C18.3354 12.1879 17.4766 14.2887 15.9427 15.8489C14.4089 17.4091 12.323 18.3034 10.1353 18.3389C7.94774 18.3743 5.83394 17.548 4.25032 16.0384C2.66671 14.5287 1.74032 12.4568 1.67116 10.27L1.66699 10L1.67033 9.76669C1.79366 5.27252 5.47533 1.66669 10.0003 1.66669ZM10.0003 9.16669H9.16699L9.06949 9.17252C8.86695 9.19661 8.68028 9.29415 8.54484 9.44666C8.40939 9.59917 8.33459 9.79605 8.33459 10C8.33459 10.204 8.40939 10.4009 8.54484 10.5534C8.68028 10.7059 8.86695 10.8034 9.06949 10.8275L9.16699 10.8334V13.3334L9.17283 13.4309C9.19476 13.6169 9.27873 13.7901 9.41117 13.9225C9.54361 14.055 9.71681 14.1389 9.90283 14.1609L10.0003 14.1667H10.8337L10.9312 14.1609C11.1172 14.1389 11.2904 14.055 11.4228 13.9225C11.5553 13.7901 11.6392 13.6169 11.6612 13.4309L11.667 13.3334L11.6612 13.2359C11.6412 13.0658 11.5694 12.9061 11.4555 12.7783C11.3416 12.6505 11.1911 12.5609 11.0245 12.5217L10.9312 12.505L10.8337 12.5V10L10.8278 9.90252C10.8059 9.71651 10.7219 9.54331 10.5895 9.41086C10.457 9.27842 10.2838 9.19446 10.0978 9.17252L10.0003 9.16669ZM10.0087 6.66669L9.90283 6.67252C9.70028 6.69661 9.51361 6.79415 9.37817 6.94666C9.24273 7.09917 9.16792 7.29605 9.16792 7.50002C9.16792 7.70399 9.24273 7.90087 9.37817 8.05338C9.51361 8.20589 9.70028 8.30343 9.90283 8.32752L10.0003 8.33335L10.1062 8.32752C10.3087 8.30343 10.4954 8.20589 10.6308 8.05338C10.7663 7.90087 10.8411 7.70399 10.8411 7.50002C10.8411 7.29605 10.7663 7.09917 10.6308 6.94666C10.4954 6.79415 10.3087 6.69661 10.1062 6.67252L10.0087 6.66669Z" fill="#0BA2E8"/>
</svg>
