<svg width="20" height="20" viewBox="0 0 20 20" fill="none" xmlns="http://www.w3.org/2000/svg">
<g clip-path="url(#clip0_286_12518)">
<path d="M14.167 2.78334C15.4239 3.50905 16.4694 4.55045 17.2002 5.80442C17.9309 7.0584 18.3215 8.48148 18.3332 9.93279C18.3449 11.3841 17.9774 12.8133 17.267 14.0789C16.5566 15.3445 15.528 16.4027 14.283 17.1486C13.038 17.8945 11.6198 18.3024 10.1687 18.3317C8.71768 18.3611 7.28412 18.011 6.00995 17.316C4.73579 16.6211 3.66522 15.6054 2.90421 14.3696C2.14321 13.1338 1.71817 11.7206 1.67116 10.27L1.66699 10L1.67116 9.73001C1.71783 8.29083 2.13662 6.88831 2.88669 5.65917C3.63677 4.43003 4.69254 3.41622 5.95107 2.71658C7.2096 2.01693 8.62795 1.65534 10.0678 1.66704C11.5077 1.67874 12.92 2.06334 14.167 2.78334ZM13.0895 7.74417C12.946 7.60069 12.7551 7.5145 12.5526 7.50177C12.35 7.48903 12.1498 7.55063 11.9895 7.67501L11.9112 7.74417L9.16699 10.4875L8.08949 9.41084L8.01116 9.34167C7.85081 9.21739 7.65064 9.15586 7.44816 9.16863C7.24569 9.18141 7.05483 9.2676 6.91138 9.41106C6.76792 9.55451 6.68173 9.74537 6.66895 9.94784C6.65618 10.1503 6.71771 10.3505 6.84199 10.5108L6.91116 10.5892L8.57783 12.2558L8.65616 12.325C8.8023 12.4384 8.98202 12.4999 9.16699 12.4999C9.35197 12.4999 9.53168 12.4384 9.67783 12.325L9.75616 12.2558L13.0895 8.92251L13.1587 8.84417C13.283 8.68384 13.3446 8.48363 13.3319 8.28111C13.3192 8.07858 13.233 7.88767 13.0895 7.74417Z" fill="#11C544"/>
</g>
<defs>
<clipPath id="clip0_286_12518">
<rect width="20" height="20" fill="white"/>
</clipPath>
</defs>
</svg>
