<svg xmlns="http://www.w3.org/2000/svg" width="20" height="20" viewBox="0 0 20 20" fill="none">
  <path d="M8.83342 9.16667H5.50008C5.27907 9.16667 5.06711 9.07887 4.91083 8.92259C4.75455 8.76631 4.66675 8.55435 4.66675 8.33333V5.83333C4.66675 5.61232 4.75455 5.40036 4.91083 5.24408C5.06711 5.0878 5.27907 5 5.50008 5H8.00008C8.2211 5 8.43306 5.0878 8.58934 5.24408C8.74562 5.40036 8.83342 5.61232 8.83342 5.83333V10.8333C8.83342 13.0558 7.72258 14.4442 5.50008 15M16.3334 9.16667H13.0001C12.7791 9.16667 12.5671 9.07887 12.4108 8.92259C12.2545 8.76631 12.1667 8.55435 12.1667 8.33333V5.83333C12.1667 5.61232 12.2545 5.40036 12.4108 5.24408C12.5671 5.0878 12.7791 5 13.0001 5H15.5001C15.7211 5 15.9331 5.0878 16.0893 5.24408C16.2456 5.40036 16.3334 5.61232 16.3334 5.83333V10.8333C16.3334 13.0558 15.2226 14.4442 13.0001 15" stroke="inherit" stroke-linecap="round" stroke-linejoin="round"/>
</svg>
