<svg width="32" height="32" viewBox="0 0 32 32" fill="none" xmlns="http://www.w3.org/2000/svg">
<path d="M0 4C0 1.79086 1.79086 0 4 0H28C30.2091 0 32 1.79086 32 4V28C32 30.2091 30.2091 32 28 32H4C1.79086 32 0 30.2091 0 28V4Z" fill="white"/>
<path d="M6.451 16.8216C6.64683 17.1349 7.10317 17.1349 7.299 16.8216L8.27188 15.265C8.48002 14.932 8.24059 14.5 7.84788 14.5H5.90212C5.50941 14.5 5.26998 14.932 5.47812 15.265L6.451 16.8216Z" fill="#D2E2F3"/>
<path d="M21.1404 21C21.0703 21 20.9552 20.995 20.795 20.985C20.6349 20.975 20.4697 20.965 20.2996 20.955C20.1294 20.9449 19.9642 20.9349 19.8041 20.9249C19.6439 20.9149 19.5288 20.9099 19.4587 20.9099H18.5728C18.5028 20.9099 18.3876 20.9149 18.2275 20.9249C18.0673 20.9349 17.9022 20.9449 17.732 20.955C17.5618 20.965 17.3966 20.975 17.2365 20.985C17.0763 20.995 16.9612 21 16.8911 21L16.8611 20.9399L16.9062 20.3694L16.9662 20.3093C17.1264 20.3093 17.2765 20.3043 17.4167 20.2943C17.5568 20.2743 17.6769 20.2292 17.777 20.1592C17.8671 20.0891 17.9372 19.999 17.9872 19.8889C18.0373 19.7788 18.0873 19.5836 18.1374 19.3033C18.1474 19.2332 18.1524 19.1532 18.1524 19.0631C18.1624 18.963 18.1674 18.8428 18.1674 18.7027C18.1774 18.5626 18.1824 18.3924 18.1824 18.1922C18.1824 17.992 18.1824 17.7417 18.1824 17.4414V16.2402H13.738V17.1411C13.738 17.5015 13.738 17.7968 13.738 18.027C13.738 18.2472 13.738 18.4324 13.738 18.5826C13.748 18.7327 13.753 18.8629 13.753 18.973C13.763 19.0731 13.773 19.1832 13.783 19.3033C13.8031 19.5836 13.8481 19.7788 13.9182 19.8889C13.9882 19.999 14.0633 20.0891 14.1434 20.1592C14.2335 20.2292 14.3486 20.2743 14.4887 20.2943C14.6389 20.3043 14.794 20.3093 14.9542 20.3093L15.0143 20.3694L15.0593 20.9399L15.0293 21C14.9592 21 14.8441 20.995 14.6839 20.985C14.5238 20.975 14.3586 20.965 14.1884 20.955C14.0183 20.9449 13.8531 20.9349 13.6929 20.9249C13.5328 20.9149 13.4177 20.9099 13.3476 20.9099H12.4617C12.3916 20.9099 12.2765 20.9149 12.1164 20.9249C11.9562 20.9349 11.791 20.9449 11.6209 20.955C11.4507 20.965 11.2855 20.975 11.1254 20.985C10.9652 20.995 10.8501 21 10.78 21L10.75 20.9399L10.795 20.3694L10.8701 20.3093C11.0303 20.3093 11.1804 20.3043 11.3206 20.2943C11.4607 20.2743 11.5758 20.2292 11.6659 20.1592C11.746 20.0891 11.8211 19.999 11.8911 19.8889C11.9712 19.7788 12.0213 19.5836 12.0413 19.3033C12.0413 19.2332 12.0413 19.1532 12.0413 19.0631C12.0513 18.963 12.0563 18.8428 12.0563 18.7027C12.0663 18.5626 12.0713 18.3924 12.0713 18.1922C12.0713 17.992 12.0713 17.7417 12.0713 17.4414V14.994C12.0713 14.6436 12.0713 14.3483 12.0713 14.1081C12.0713 13.8679 12.0663 13.6627 12.0563 13.4925C12.0563 13.3223 12.0513 13.1772 12.0413 13.0571C12.0413 12.9369 12.0363 12.8168 12.0263 12.6967C12.0063 12.4364 11.9612 12.2462 11.8911 12.1261C11.8211 12.006 11.746 11.9109 11.6659 11.8408C11.5758 11.7708 11.4607 11.7307 11.3206 11.7207C11.1804 11.7007 11.0303 11.6907 10.8701 11.6907L10.795 11.6306L10.75 11.0601L10.78 11C10.8501 11 10.9652 11.005 11.1254 11.015C11.2855 11.025 11.4507 11.035 11.6209 11.045C11.791 11.0551 11.9562 11.0651 12.1164 11.0751C12.2765 11.0851 12.3916 11.0901 12.4617 11.0901H13.3476C13.4177 11.0901 13.5328 11.0851 13.6929 11.0751C13.8531 11.0651 14.0183 11.0551 14.1884 11.045C14.3586 11.035 14.5238 11.025 14.6839 11.015C14.8441 11.005 14.9592 11 15.0293 11L15.0593 11.0601L15.0143 11.6306L14.9542 11.6907C14.8141 11.6907 14.6639 11.7007 14.5038 11.7207C14.3536 11.7307 14.2335 11.7708 14.1434 11.8408C14.0633 11.9109 13.9832 12.001 13.9032 12.1111C13.8331 12.2212 13.793 12.4164 13.783 12.6967C13.773 12.8368 13.763 12.967 13.753 13.0871C13.753 13.2072 13.748 13.3473 13.738 13.5075C13.738 13.6677 13.738 13.8629 13.738 14.0931C13.738 14.3233 13.738 14.6186 13.738 14.979V15.1291H18.1824V14.994C18.1824 14.6436 18.1824 14.3483 18.1824 14.1081C18.1824 13.8679 18.1774 13.6627 18.1674 13.4925C18.1674 13.3223 18.1624 13.1772 18.1524 13.0571C18.1524 12.9369 18.1474 12.8168 18.1374 12.6967C18.1174 12.4164 18.0723 12.2212 18.0023 12.1111C17.9322 12.001 17.8571 11.9109 17.777 11.8408C17.6869 11.7708 17.5668 11.7307 17.4167 11.7207C17.2765 11.7007 17.1264 11.6907 16.9662 11.6907L16.9062 11.6306L16.8611 11.0601L16.8911 11C16.9612 11 17.0763 11.005 17.2365 11.015C17.3966 11.025 17.5618 11.035 17.732 11.045C17.9022 11.0551 18.0673 11.0651 18.2275 11.0751C18.3876 11.0851 18.5028 11.0901 18.5728 11.0901H19.4587C19.5288 11.0901 19.6439 11.0851 19.8041 11.0751C19.9642 11.0651 20.1294 11.0551 20.2996 11.045C20.4697 11.035 20.6349 11.025 20.795 11.015C20.9552 11.005 21.0703 11 21.1404 11L21.1704 11.0601L21.1254 11.6306L21.0503 11.6907C20.8901 11.6907 20.735 11.7007 20.5848 11.7207C20.4447 11.7307 20.3346 11.7708 20.2545 11.8408C20.1744 11.9109 20.0993 12.001 20.0293 12.1111C19.9692 12.2212 19.9192 12.4164 19.8791 12.6967C19.8691 12.8368 19.8591 12.967 19.8491 13.0871C19.8491 13.2072 19.8491 13.3473 19.8491 13.5075C19.8491 13.6677 19.8491 13.8629 19.8491 14.0931C19.8491 14.3233 19.8491 14.6186 19.8491 14.979V17.1411C19.8491 17.5015 19.8491 17.7968 19.8491 18.027C19.8491 18.2472 19.8491 18.4324 19.8491 18.5826C19.8491 18.7327 19.8491 18.8629 19.8491 18.973C19.8591 19.0731 19.8691 19.1832 19.8791 19.3033C19.8991 19.5836 19.9442 19.7788 20.0143 19.8889C20.0943 19.999 20.1744 20.0891 20.2545 20.1592C20.3446 20.2292 20.4597 20.2743 20.5999 20.2943C20.74 20.3043 20.8901 20.3093 21.0503 20.3093L21.1254 20.3694L21.1704 20.9399L21.1404 21Z" fill="#1D67B2"/>
<path d="M23.2037 19.3183C23.2437 19.6186 23.3638 19.8388 23.564 19.979C23.7742 20.1091 24.0045 20.1742 24.2547 20.1742C24.545 20.1742 24.8053 20.0891 25.0355 19.9189C25.2657 19.7487 25.3808 19.5185 25.3808 19.2282C25.3808 18.9479 25.2958 18.7127 25.1256 18.5225C24.9654 18.3323 24.7202 18.2372 24.3899 18.2372H23.7592L23.8493 17.6216C24.2797 17.6116 24.5951 17.5165 24.7953 17.3363C25.0055 17.1461 25.1106 16.9459 25.1106 16.7357C25.1106 16.5355 25.0255 16.3754 24.8553 16.2553C24.6851 16.1251 24.49 16.0601 24.2697 16.0601C24.0495 16.0601 23.8393 16.1251 23.6391 16.2553C23.4489 16.3854 23.3538 16.5606 23.3538 16.7808C23.3538 16.8509 23.3588 16.9009 23.3688 16.9309H22.7382L22.6631 16.2703C22.7232 16.1702 22.7933 16.0651 22.8733 15.955C22.9634 15.8448 23.0735 15.7447 23.2037 15.6547C23.3338 15.5646 23.4889 15.4945 23.6691 15.4444C23.8493 15.3844 24.0695 15.3544 24.3298 15.3544C24.6001 15.3544 24.8403 15.3944 25.0505 15.4745C25.2707 15.5445 25.4559 15.6446 25.6061 15.7748C25.7562 15.8949 25.8663 16.04 25.9364 16.2102C26.0165 16.3704 26.0565 16.5355 26.0565 16.7057C26.0565 16.9259 26.0015 17.1411 25.8914 17.3514C25.7913 17.5516 25.6111 17.7217 25.3508 17.8619C25.7012 17.9419 25.9514 18.1021 26.1016 18.3423C26.2517 18.5826 26.3268 18.8478 26.3268 19.1381C26.3268 19.3483 26.2767 19.5586 26.1766 19.7688C26.0865 19.979 25.9514 20.1692 25.7712 20.3393C25.5911 20.5095 25.3708 20.6496 25.1106 20.7598C24.8603 20.8599 24.575 20.9099 24.2547 20.9099C23.8343 20.9099 23.4839 20.8298 23.2037 20.6697C22.9334 20.4995 22.6982 20.2693 22.498 19.979L22.588 19.3183H23.2037Z" fill="#1D67B2"/>
</svg>
