<svg width="32" height="32" viewBox="0 0 32 32" fill="none" xmlns="http://www.w3.org/2000/svg">
    <path d="M0 4C0 1.79086 1.79086 0 4 0H28C30.2091 0 32 1.79086 32 4V28C32 30.2091 30.2091 32 28 32H4C1.79086 32 0 30.2091 0 28V4Z"
          class="fill-gray-0"/>
    <path d="M7.451 16.8216C7.64683 17.1349 8.10317 17.1349 8.299 16.8216L9.27188 15.265C9.48002 14.932 9.24059 14.5 8.84788 14.5H6.90212C6.50941 14.5 6.26998 14.932 6.47812 15.265L7.451 16.8216Z"
          class="fill-ocean-1"/>
    <path d="M22.359 21C22.2875 21 22.1699 20.995 22.0064 20.985C21.8429 20.975 21.6742 20.965 21.5005 20.955C21.3267 20.9449 21.1581 20.9349 20.9946 20.9249C20.831 20.9149 20.7135 20.9099 20.6419 20.9099H19.7374C19.6659 20.9099 19.5483 20.9149 19.3848 20.9249C19.2213 20.9349 19.0526 20.9449 18.8789 20.955C18.7051 20.965 18.5365 20.975 18.373 20.985C18.2094 20.995 18.0919 21 18.0204 21L17.9897 20.9399L18.0357 20.3694L18.097 20.3093C18.2605 20.3093 18.4138 20.3043 18.5569 20.2943C18.7 20.2743 18.8227 20.2292 18.9249 20.1592C19.0169 20.0891 19.0884 19.999 19.1395 19.8889C19.1906 19.7788 19.2417 19.5836 19.2928 19.3033C19.303 19.2332 19.3082 19.1532 19.3082 19.0631C19.3184 18.963 19.3235 18.8428 19.3235 18.7027C19.3337 18.5626 19.3388 18.3924 19.3388 18.1922C19.3388 17.992 19.3388 17.7417 19.3388 17.4414V16.2402H14.8009V17.1411C14.8009 17.5015 14.8009 17.7968 14.8009 18.027C14.8009 18.2472 14.8009 18.4324 14.8009 18.5826C14.8111 18.7327 14.8162 18.8629 14.8162 18.973C14.8264 19.0731 14.8366 19.1832 14.8468 19.3033C14.8673 19.5836 14.9133 19.7788 14.9848 19.8889C15.0564 19.999 15.133 20.0891 15.2148 20.1592C15.3068 20.2292 15.4243 20.2743 15.5674 20.2943C15.7207 20.3043 15.8791 20.3093 16.0427 20.3093L16.104 20.3694L16.15 20.9399L16.1193 21C16.0478 21 15.9302 20.995 15.7667 20.985C15.6032 20.975 15.4345 20.965 15.2608 20.955C15.087 20.9449 14.9184 20.9349 14.7549 20.9249C14.5913 20.9149 14.4738 20.9099 14.4023 20.9099H13.4977C13.4262 20.9099 13.3086 20.9149 13.1451 20.9249C12.9816 20.9349 12.8129 20.9449 12.6392 20.955C12.4654 20.965 12.2968 20.975 12.1333 20.985C11.9697 20.995 11.8522 21 11.7807 21L11.75 20.9399L11.796 20.3694L11.8726 20.3093C12.0362 20.3093 12.1895 20.3043 12.3326 20.2943C12.4757 20.2743 12.5932 20.2292 12.6852 20.1592C12.767 20.0891 12.8436 19.999 12.9152 19.8889C12.9969 19.7788 13.048 19.5836 13.0685 19.3033C13.0685 19.2332 13.0685 19.1532 13.0685 19.0631C13.0787 18.963 13.0838 18.8428 13.0838 18.7027C13.094 18.5626 13.0991 18.3924 13.0991 18.1922C13.0991 17.992 13.0991 17.7417 13.0991 17.4414V14.994C13.0991 14.6436 13.0991 14.3483 13.0991 14.1081C13.0991 13.8679 13.094 13.6627 13.0838 13.4925C13.0838 13.3223 13.0787 13.1772 13.0685 13.0571C13.0685 12.9369 13.0633 12.8168 13.0531 12.6967C13.0327 12.4364 12.9867 12.2462 12.9152 12.1261C12.8436 12.006 12.767 11.9109 12.6852 11.8408C12.5932 11.7708 12.4757 11.7307 12.3326 11.7207C12.1895 11.7007 12.0362 11.6907 11.8726 11.6907L11.796 11.6306L11.75 11.0601L11.7807 11C11.8522 11 11.9697 11.005 12.1333 11.015C12.2968 11.025 12.4654 11.035 12.6392 11.045C12.8129 11.0551 12.9816 11.0651 13.1451 11.0751C13.3086 11.0851 13.4262 11.0901 13.4977 11.0901H14.4023C14.4738 11.0901 14.5913 11.0851 14.7549 11.0751C14.9184 11.0651 15.087 11.0551 15.2608 11.045C15.4345 11.035 15.6032 11.025 15.7667 11.015C15.9302 11.005 16.0478 11 16.1193 11L16.15 11.0601L16.104 11.6306L16.0427 11.6907C15.8996 11.6907 15.7463 11.7007 15.5827 11.7207C15.4294 11.7307 15.3068 11.7708 15.2148 11.8408C15.133 11.9109 15.0513 12.001 14.9695 12.1111C14.898 12.2212 14.8571 12.4164 14.8468 12.6967C14.8366 12.8368 14.8264 12.967 14.8162 13.0871C14.8162 13.2072 14.8111 13.3473 14.8009 13.5075C14.8009 13.6677 14.8009 13.8629 14.8009 14.0931C14.8009 14.3233 14.8009 14.6186 14.8009 14.979V15.1291H19.3388V14.994C19.3388 14.6436 19.3388 14.3483 19.3388 14.1081C19.3388 13.8679 19.3337 13.6627 19.3235 13.4925C19.3235 13.3223 19.3184 13.1772 19.3082 13.0571C19.3082 12.9369 19.303 12.8168 19.2928 12.6967C19.2724 12.4164 19.2264 12.2212 19.1548 12.1111C19.0833 12.001 19.0066 11.9109 18.9249 11.8408C18.8329 11.7708 18.7102 11.7307 18.5569 11.7207C18.4138 11.7007 18.2605 11.6907 18.097 11.6907L18.0357 11.6306L17.9897 11.0601L18.0204 11C18.0919 11 18.2094 11.005 18.373 11.015C18.5365 11.025 18.7051 11.035 18.8789 11.045C19.0526 11.0551 19.2213 11.0651 19.3848 11.0751C19.5483 11.0851 19.6659 11.0901 19.7374 11.0901H20.6419C20.7135 11.0901 20.831 11.0851 20.9946 11.0751C21.1581 11.0651 21.3267 11.0551 21.5005 11.045C21.6742 11.035 21.8429 11.025 22.0064 11.015C22.1699 11.005 22.2875 11 22.359 11L22.3897 11.0601L22.3437 11.6306L22.267 11.6907C22.1035 11.6907 21.9451 11.7007 21.7918 11.7207C21.6487 11.7307 21.5362 11.7708 21.4545 11.8408C21.3727 11.9109 21.2961 12.001 21.2245 12.1111C21.1632 12.2212 21.1121 12.4164 21.0712 12.6967C21.061 12.8368 21.0508 12.967 21.0405 13.0871C21.0405 13.2072 21.0405 13.3473 21.0405 13.5075C21.0405 13.6677 21.0405 13.8629 21.0405 14.0931C21.0405 14.3233 21.0405 14.6186 21.0405 14.979V17.1411C21.0405 17.5015 21.0405 17.7968 21.0405 18.027C21.0405 18.2472 21.0405 18.4324 21.0405 18.5826C21.0405 18.7327 21.0405 18.8629 21.0405 18.973C21.0508 19.0731 21.061 19.1832 21.0712 19.3033C21.0916 19.5836 21.1376 19.7788 21.2092 19.8889C21.291 19.999 21.3727 20.0891 21.4545 20.1592C21.5465 20.2292 21.664 20.2743 21.8071 20.2943C21.9502 20.3043 22.1035 20.3093 22.267 20.3093L22.3437 20.3694L22.3897 20.9399L22.359 21Z"
          class="fill-ocean-5"/>
    <path d="M23.7298 16.4054L23.7451 16.3453C24.1029 16.2152 24.435 16.0851 24.7416 15.955C25.0585 15.8148 25.3651 15.6396 25.6615 15.4294H25.7228L25.9375 15.5045C25.9068 15.8248 25.8864 16.1652 25.8761 16.5255C25.8761 16.8759 25.8761 17.2963 25.8761 17.7868V18.6126C25.8761 18.8228 25.8761 18.998 25.8761 19.1381C25.8761 19.2683 25.8761 19.3834 25.8761 19.4835C25.8761 19.5736 25.8761 19.6537 25.8761 19.7237C25.8864 19.7938 25.8966 19.8739 25.9068 19.964C25.917 20.0941 25.9426 20.1942 25.9835 20.2643C26.0346 20.3243 26.0857 20.3694 26.1368 20.3994C26.1879 20.4394 26.2696 20.4745 26.3821 20.5045C26.5047 20.5245 26.612 20.5345 26.704 20.5345L26.75 20.955C26.6989 20.955 26.6325 20.95 26.5507 20.9399C26.4689 20.9399 26.3769 20.9349 26.2747 20.9249C26.1828 20.9249 26.0908 20.9249 25.9988 20.9249C25.917 20.9249 25.8557 20.9249 25.8148 20.9249H24.8336C24.7825 20.9249 24.711 20.9249 24.619 20.9249C24.5372 20.9249 24.4453 20.9249 24.343 20.9249C24.2511 20.9349 24.1591 20.9399 24.0671 20.9399C23.9853 20.95 23.924 20.955 23.8831 20.955L23.9291 20.5345C24.0211 20.5345 24.1284 20.5245 24.2511 20.5045C24.3737 20.4845 24.4657 20.4494 24.527 20.3994C24.5781 20.3594 24.619 20.3093 24.6497 20.2492C24.6905 20.1792 24.7212 20.0841 24.7416 19.964C24.7519 19.8939 24.757 19.8288 24.757 19.7688C24.7672 19.7087 24.7723 19.6386 24.7723 19.5586C24.7723 19.4685 24.7723 19.3684 24.7723 19.2583C24.7723 19.1381 24.7723 18.993 24.7723 18.8228V17.8168C24.7723 17.6466 24.7723 17.5115 24.7723 17.4114C24.7723 17.3013 24.7723 17.2112 24.7723 17.1411C24.7723 17.0711 24.7672 17.011 24.757 16.961C24.757 16.9009 24.7519 16.8358 24.7416 16.7658L23.7298 17.021V16.4054Z"
          class="fill-ocean-5"/>
</svg>
