<svg width="32" height="32" viewBox="0 0 32 32" fill="none" xmlns="http://www.w3.org/2000/svg">
<path d="M0 4C0 1.79086 1.79086 0 4 0H28C30.2091 0 32 1.79086 32 4V28C32 30.2091 30.2091 32 28 32H4C1.79086 32 0 30.2091 0 28V4Z" fill="white"/>
<path d="M6.451 16.8216C6.64683 17.1349 7.10317 17.1349 7.299 16.8216L8.27188 15.265C8.48002 14.932 8.24059 14.5 7.84788 14.5H5.90212C5.50941 14.5 5.26998 14.932 5.47812 15.265L6.451 16.8216Z" fill="#D2E2F3"/>
<path d="M21.1404 21C21.0703 21 20.9552 20.995 20.795 20.985C20.6349 20.975 20.4697 20.965 20.2996 20.955C20.1294 20.9449 19.9642 20.9349 19.8041 20.9249C19.6439 20.9149 19.5288 20.9099 19.4587 20.9099H18.5728C18.5028 20.9099 18.3876 20.9149 18.2275 20.9249C18.0673 20.9349 17.9022 20.9449 17.732 20.955C17.5618 20.965 17.3966 20.975 17.2365 20.985C17.0763 20.995 16.9612 21 16.8911 21L16.8611 20.9399L16.9062 20.3694L16.9662 20.3093C17.1264 20.3093 17.2765 20.3043 17.4167 20.2943C17.5568 20.2743 17.6769 20.2292 17.777 20.1592C17.8671 20.0891 17.9372 19.999 17.9872 19.8889C18.0373 19.7788 18.0873 19.5836 18.1374 19.3033C18.1474 19.2332 18.1524 19.1532 18.1524 19.0631C18.1624 18.963 18.1674 18.8428 18.1674 18.7027C18.1774 18.5626 18.1824 18.3924 18.1824 18.1922C18.1824 17.992 18.1824 17.7417 18.1824 17.4414V16.2402H13.738V17.1411C13.738 17.5015 13.738 17.7968 13.738 18.027C13.738 18.2472 13.738 18.4324 13.738 18.5826C13.748 18.7327 13.753 18.8629 13.753 18.973C13.763 19.0731 13.773 19.1832 13.783 19.3033C13.8031 19.5836 13.8481 19.7788 13.9182 19.8889C13.9882 19.999 14.0633 20.0891 14.1434 20.1592C14.2335 20.2292 14.3486 20.2743 14.4887 20.2943C14.6389 20.3043 14.794 20.3093 14.9542 20.3093L15.0143 20.3694L15.0593 20.9399L15.0293 21C14.9592 21 14.8441 20.995 14.6839 20.985C14.5238 20.975 14.3586 20.965 14.1884 20.955C14.0183 20.9449 13.8531 20.9349 13.6929 20.9249C13.5328 20.9149 13.4177 20.9099 13.3476 20.9099H12.4617C12.3916 20.9099 12.2765 20.9149 12.1164 20.9249C11.9562 20.9349 11.791 20.9449 11.6209 20.955C11.4507 20.965 11.2855 20.975 11.1254 20.985C10.9652 20.995 10.8501 21 10.78 21L10.75 20.9399L10.795 20.3694L10.8701 20.3093C11.0303 20.3093 11.1804 20.3043 11.3206 20.2943C11.4607 20.2743 11.5758 20.2292 11.6659 20.1592C11.746 20.0891 11.8211 19.999 11.8911 19.8889C11.9712 19.7788 12.0213 19.5836 12.0413 19.3033C12.0413 19.2332 12.0413 19.1532 12.0413 19.0631C12.0513 18.963 12.0563 18.8428 12.0563 18.7027C12.0663 18.5626 12.0713 18.3924 12.0713 18.1922C12.0713 17.992 12.0713 17.7417 12.0713 17.4414V14.994C12.0713 14.6436 12.0713 14.3483 12.0713 14.1081C12.0713 13.8679 12.0663 13.6627 12.0563 13.4925C12.0563 13.3223 12.0513 13.1772 12.0413 13.0571C12.0413 12.9369 12.0363 12.8168 12.0263 12.6967C12.0063 12.4364 11.9612 12.2462 11.8911 12.1261C11.8211 12.006 11.746 11.9109 11.6659 11.8408C11.5758 11.7708 11.4607 11.7307 11.3206 11.7207C11.1804 11.7007 11.0303 11.6907 10.8701 11.6907L10.795 11.6306L10.75 11.0601L10.78 11C10.8501 11 10.9652 11.005 11.1254 11.015C11.2855 11.025 11.4507 11.035 11.6209 11.045C11.791 11.0551 11.9562 11.0651 12.1164 11.0751C12.2765 11.0851 12.3916 11.0901 12.4617 11.0901H13.3476C13.4177 11.0901 13.5328 11.0851 13.6929 11.0751C13.8531 11.0651 14.0183 11.0551 14.1884 11.045C14.3586 11.035 14.5238 11.025 14.6839 11.015C14.8441 11.005 14.9592 11 15.0293 11L15.0593 11.0601L15.0143 11.6306L14.9542 11.6907C14.8141 11.6907 14.6639 11.7007 14.5038 11.7207C14.3536 11.7307 14.2335 11.7708 14.1434 11.8408C14.0633 11.9109 13.9832 12.001 13.9032 12.1111C13.8331 12.2212 13.793 12.4164 13.783 12.6967C13.773 12.8368 13.763 12.967 13.753 13.0871C13.753 13.2072 13.748 13.3473 13.738 13.5075C13.738 13.6677 13.738 13.8629 13.738 14.0931C13.738 14.3233 13.738 14.6186 13.738 14.979V15.1291H18.1824V14.994C18.1824 14.6436 18.1824 14.3483 18.1824 14.1081C18.1824 13.8679 18.1774 13.6627 18.1674 13.4925C18.1674 13.3223 18.1624 13.1772 18.1524 13.0571C18.1524 12.9369 18.1474 12.8168 18.1374 12.6967C18.1174 12.4164 18.0723 12.2212 18.0023 12.1111C17.9322 12.001 17.8571 11.9109 17.777 11.8408C17.6869 11.7708 17.5668 11.7307 17.4167 11.7207C17.2765 11.7007 17.1264 11.6907 16.9662 11.6907L16.9062 11.6306L16.8611 11.0601L16.8911 11C16.9612 11 17.0763 11.005 17.2365 11.015C17.3966 11.025 17.5618 11.035 17.732 11.045C17.9022 11.0551 18.0673 11.0651 18.2275 11.0751C18.3876 11.0851 18.5028 11.0901 18.5728 11.0901H19.4587C19.5288 11.0901 19.6439 11.0851 19.8041 11.0751C19.9642 11.0651 20.1294 11.0551 20.2996 11.045C20.4697 11.035 20.6349 11.025 20.795 11.015C20.9552 11.005 21.0703 11 21.1404 11L21.1704 11.0601L21.1254 11.6306L21.0503 11.6907C20.8901 11.6907 20.735 11.7007 20.5848 11.7207C20.4447 11.7307 20.3346 11.7708 20.2545 11.8408C20.1744 11.9109 20.0993 12.001 20.0293 12.1111C19.9692 12.2212 19.9192 12.4164 19.8791 12.6967C19.8691 12.8368 19.8591 12.967 19.8491 13.0871C19.8491 13.2072 19.8491 13.3473 19.8491 13.5075C19.8491 13.6677 19.8491 13.8629 19.8491 14.0931C19.8491 14.3233 19.8491 14.6186 19.8491 14.979V17.1411C19.8491 17.5015 19.8491 17.7968 19.8491 18.027C19.8491 18.2472 19.8491 18.4324 19.8491 18.5826C19.8491 18.7327 19.8491 18.8629 19.8491 18.973C19.8591 19.0731 19.8691 19.1832 19.8791 19.3033C19.8991 19.5836 19.9442 19.7788 20.0143 19.8889C20.0943 19.999 20.1744 20.0891 20.2545 20.1592C20.3446 20.2292 20.4597 20.2743 20.5999 20.2943C20.74 20.3043 20.8901 20.3093 21.0503 20.3093L21.1254 20.3694L21.1704 20.9399L21.1404 21Z" fill="#1D67B2"/>
<path d="M22.6181 16.4054C22.6982 16.2953 22.7933 16.1852 22.9034 16.0751C23.0135 15.955 23.1436 15.8499 23.2938 15.7598C23.4439 15.6697 23.6191 15.5996 23.8193 15.5495C24.0195 15.4895 24.2497 15.4595 24.51 15.4595C25.0805 15.4595 25.501 15.5946 25.7712 15.8649C26.0515 16.1351 26.1917 16.4855 26.1917 16.9159C26.1917 17.1361 26.1366 17.3564 26.0265 17.5766C25.9164 17.7868 25.7762 18.002 25.6061 18.2222C25.4459 18.4324 25.2657 18.6326 25.0655 18.8228C24.8753 19.013 24.6952 19.1932 24.525 19.3634C24.3648 19.5235 24.2297 19.6687 24.1196 19.7988C24.0095 19.9189 23.9544 20.014 23.9544 20.0841H24.7502C24.9604 20.0841 25.1406 20.0791 25.2908 20.0691C25.4409 20.0591 25.561 20.029 25.6511 19.979C25.7512 19.9189 25.8263 19.8338 25.8763 19.7237C25.9364 19.6036 25.9814 19.4384 26.0115 19.2282H26.4469L26.3118 20.8799L26.2367 20.955C26.2067 20.955 26.1116 20.95 25.9514 20.9399C25.7913 20.9399 25.6161 20.9349 25.4259 20.9249C25.2357 20.9249 25.0505 20.9199 24.8703 20.9099C24.7002 20.9099 24.58 20.9099 24.51 20.9099H23.3989C23.2787 20.9099 23.1436 20.9149 22.9935 20.9249C22.8433 20.9349 22.6982 20.9449 22.558 20.955L22.4829 20.7147V20.3844C22.6731 20.1642 22.9184 19.9039 23.2187 19.6036C23.529 19.3033 23.8293 18.993 24.1196 18.6727C24.4099 18.3524 24.6601 18.042 24.8703 17.7417C25.0805 17.4314 25.1856 17.1612 25.1856 16.9309C25.1856 16.7207 25.1106 16.5506 24.9604 16.4204C24.8103 16.2803 24.6251 16.2102 24.4049 16.2102C24.0245 16.2102 23.7442 16.3053 23.564 16.4955C23.3939 16.6757 23.2988 16.9159 23.2787 17.2162H22.7082L22.6181 16.4054Z" fill="#1D67B2"/>
</svg>
