<svg width="32" height="32" viewBox="0 0 32 32" fill="none" xmlns="http://www.w3.org/2000/svg">
<path d="M0 4C0 1.79086 1.79086 0 4 0H28C30.2091 0 32 1.79086 32 4V28C32 30.2091 30.2091 32 28 32H4C1.79086 32 0 30.2091 0 28V4Z" fill="white"/>
<path d="M5 25.5C5 24.6716 5.67157 24 6.5 24H25.5C26.3284 24 27 24.6716 27 25.5C27 26.3284 26.3284 27 25.5 27H6.5C5.67157 27 5 26.3284 5 25.5Z" fill="#D2E2F3"/>
<path d="M5 20.5C5 19.6716 5.67157 19 6.5 19H25.5C26.3284 19 27 19.6716 27 20.5C27 21.3284 26.3284 22 25.5 22H6.5C5.67157 22 5 21.3284 5 20.5Z" fill="#D2E2F3"/>
<path d="M11 9.17364C11 10.4439 11.5046 11.6621 12.4028 12.5603C13.301 13.4585 14.5192 13.9631 15.7895 13.9631M15.7895 13.9631C17.0597 13.9631 18.2779 13.4585 19.1761 12.5603C20.0743 11.6621 20.5789 10.4439 20.5789 9.17364M15.7895 13.9631V16.7M13.0526 16.7H18.5263M15.7895 3.69995C16.9231 3.69995 17.8421 4.61895 17.8421 5.75258V9.17364C17.8421 10.3073 16.9231 11.2263 15.7895 11.2263C14.6558 11.2263 13.7368 10.3073 13.7368 9.17364V5.75258C13.7368 4.61895 14.6558 3.69995 15.7895 3.69995Z" stroke="#1D67B2" stroke-linecap="round" stroke-linejoin="round"/>
</svg>
