<svg width="32" height="32" viewBox="0 0 32 32" fill="none" xmlns="http://www.w3.org/2000/svg">
    <path d="M0 4C0 1.79086 1.79086 0 4 0H28C30.2091 0 32 1.79086 32 4V28C32 30.2091 30.2091 32 28 32H4C1.79086 32 0 30.2091 0 28V4Z"
          class="fill-gray-0"/>
    <path d="M5 8.5C5 7.67157 5.67157 7 6.5 7H8.83333C9.66176 7 10.3333 7.67157 10.3333 8.5C10.3333 9.32843 9.66176 10 8.83333 10H6.5C5.67157 10 5 9.32843 5 8.5Z"
          class="fill-ocean-1"/>
    <path d="M11.3335 7.5L12.3335 8.5L11.3335 9.5" class="stroke-ocean-1" stroke-width="0.25" stroke-linecap="round"
          stroke-linejoin="round"/>
    <path d="M13.3335 8.5C13.3335 7.67157 14.0051 7 14.8335 7H17.1668C17.9953 7 18.6668 7.67157 18.6668 8.5C18.6668 9.32843 17.9953 10 17.1668 10H14.8335C14.0051 10 13.3335 9.32843 13.3335 8.5Z"
          class="fill-ocean-1"/>
    <path d="M19.6665 7.5L20.6665 8.5L19.6665 9.5" class="stroke-ocean-1" stroke-width="0.25" stroke-linecap="round"
          stroke-linejoin="round"/>
    <path d="M21.6665 8.5C21.6665 7.67157 22.3381 7 23.1665 7H25.4998C26.3283 7 26.9998 7.67157 26.9998 8.5C26.9998 9.32843 26.3283 10 25.4998 10H23.1665C22.3381 10 21.6665 9.32843 21.6665 8.5Z"
          class="fill-ocean-5"/>
    <path d="M5 13.5C5 12.6716 5.67157 12 6.5 12H25.5C26.3284 12 27 12.6716 27 13.5C27 14.3284 26.3284 15 25.5 15H6.5C5.67157 15 5 14.3284 5 13.5Z"
          class="fill-ocean-1"/>
    <path d="M5 18.5C5 17.6716 5.67157 17 6.5 17H25.5C26.3284 17 27 17.6716 27 18.5C27 19.3284 26.3284 20 25.5 20H6.5C5.67157 20 5 19.3284 5 18.5Z"
          class="fill-ocean-1"/>
    <path d="M5 23.5C5 22.6716 5.67157 22 6.5 22H25.5C26.3284 22 27 22.6716 27 23.5C27 24.3284 26.3284 25 25.5 25H6.5C5.67157 25 5 24.3284 5 23.5Z"
          class="fill-ocean-1"/>
</svg>
