<svg width="32" height="32" viewBox="0 0 32 32" fill="none" xmlns="http://www.w3.org/2000/svg">
<path d="M0 4C0 1.79086 1.79086 0 4 0H28C30.2091 0 32 1.79086 32 4V28C32 30.2091 30.2091 32 28 32H4C1.79086 32 0 30.2091 0 28V4Z" fill="white"/>
<path d="M5 25.5C5 24.6716 5.67157 24 6.5 24H25.5C26.3284 24 27 24.6716 27 25.5C27 26.3284 26.3284 27 25.5 27H6.5C5.67157 27 5 26.3284 5 25.5Z" fill="#D2E2F3"/>
<path d="M5 20.5C5 19.6716 5.67157 19 6.5 19H25.5C26.3284 19 27 19.6716 27 20.5C27 21.3284 26.3284 22 25.5 22H6.5C5.67157 22 5 21.3284 5 20.5Z" fill="#D2E2F3"/>
<path d="M8 11.7013C8 11.4986 8.03577 11.3019 8.1073 11.1111C8.19076 10.9204 8.30402 10.7535 8.44709 10.6104C8.59016 10.4554 8.75708 10.3362 8.94784 10.2527C9.1386 10.1573 9.34724 10.1096 9.57377 10.1096C9.77645 10.1096 9.97317 10.1573 10.1639 10.2527C10.3547 10.3362 10.5216 10.4554 10.6647 10.6104C10.8077 10.7535 10.921 10.9204 11.0045 11.1111C11.0999 11.3019 11.1475 11.4986 11.1475 11.7013C11.1475 12.1544 10.9866 12.5299 10.6647 12.828C10.3428 13.1141 9.97914 13.2572 9.57377 13.2572C9.12072 13.2572 8.74516 13.1141 8.44709 12.828C8.14903 12.5299 8 12.1544 8 11.7013Z" fill="#1D67B2"/>
<path d="M22.1665 17C22.083 17 21.9519 16.994 21.773 16.9821C21.5942 16.9702 21.4035 16.9583 21.2008 16.9463C20.9981 16.9344 20.8073 16.9225 20.6285 16.9106C20.4496 16.8987 20.3185 16.8927 20.235 16.8927H18.5003C18.4169 16.8927 18.2857 16.8987 18.1069 16.9106C17.928 16.9225 17.7373 16.9344 17.5346 16.9463C17.3438 16.9583 17.159 16.9702 16.9802 16.9821C16.8014 16.994 16.6702 17 16.5868 17L16.551 16.9285L16.6046 16.2489L16.6941 16.1773C16.8729 16.1773 17.0815 16.1714 17.32 16.1595C17.5704 16.1475 17.7492 16.0939 17.8565 15.9985C17.9519 15.9151 18.0473 15.8077 18.1426 15.6766C18.238 15.5455 18.3036 15.313 18.3394 14.9791C18.3513 14.8957 18.3573 14.8003 18.3573 14.693C18.3692 14.5738 18.3751 14.4307 18.3751 14.2638C18.3871 14.0969 18.393 13.8942 18.393 13.6557C18.393 13.4173 18.393 13.1192 18.393 12.7615V9.48882C18.393 8.83309 18.3871 8.24888 18.3751 7.73621C18.3632 7.22355 18.3513 6.84203 18.3394 6.59165H18.1426C17.6896 6.59165 17.314 6.59762 17.016 6.60954C16.7179 6.60954 16.4795 6.62146 16.3006 6.64531C16.1218 6.65723 15.9847 6.67511 15.8893 6.69896C15.8058 6.7228 15.7462 6.75261 15.7105 6.78838C15.5793 6.84799 15.472 6.94337 15.3885 7.07452C15.3051 7.20566 15.2514 7.36066 15.2276 7.53949L15.1561 7.61103H14.3871L14.5122 5.2146L14.5838 5.05365L14.6911 5C14.7865 5.03577 14.9951 5.07153 15.317 5.1073C15.6389 5.13115 15.9906 5.14903 16.3722 5.16095C16.7537 5.17288 17.1173 5.1848 17.4631 5.19672C17.8207 5.19672 18.0771 5.19672 18.2321 5.19672H20.4854C20.6404 5.19672 20.8908 5.19672 21.2365 5.19672C21.5942 5.1848 21.9638 5.17288 22.3453 5.16095C22.7268 5.14903 23.0786 5.13115 23.4005 5.1073C23.7224 5.07153 23.931 5.03577 24.0264 5L24.1337 5.05365L24.2052 5.2146L24.3483 7.61103H23.5614L23.4899 7.53949C23.466 7.36066 23.4124 7.20566 23.3289 7.07452C23.2455 6.94337 23.1382 6.84799 23.007 6.78838C22.9713 6.74069 22.9057 6.70492 22.8103 6.68107C22.7268 6.64531 22.5957 6.62146 22.4169 6.60954C22.238 6.59762 21.9996 6.59165 21.7015 6.59165C21.4154 6.59165 21.0458 6.59165 20.5927 6.59165H20.396C20.3841 6.87779 20.3722 7.25931 20.3602 7.73621C20.3602 8.21311 20.3602 8.79136 20.3602 9.47094V12.4039C20.3602 12.8331 20.3602 13.1848 20.3602 13.459C20.3602 13.7213 20.3602 13.9419 20.3602 14.1207C20.3722 14.2996 20.3781 14.4545 20.3781 14.5857C20.39 14.7049 20.402 14.8361 20.4139 14.9791C20.4377 15.3249 20.5033 15.5633 20.6106 15.6945C20.7179 15.8256 20.8192 15.927 20.9146 15.9985C20.9623 16.0462 21.0279 16.082 21.1113 16.1058C21.2067 16.1297 21.3081 16.1475 21.4154 16.1595C21.5227 16.1714 21.63 16.1773 21.7373 16.1773C21.8565 16.1773 21.9638 16.1773 22.0592 16.1773L22.1486 16.2489L22.2023 16.9285L22.1665 17Z" fill="#1D67B2"/>
</svg>
