<svg width="40" height="40" viewBox="0 0 40 40" fill="none" xmlns="http://www.w3.org/2000/svg">
<path d="M0 6C0 2.68629 2.68629 0 6 0H34C37.3137 0 40 2.68629 40 6V34C40 37.3137 37.3137 40 34 40H6C2.68629 40 0 37.3137 0 34V6Z" fill="#FCFCFD"/>
<rect x="5.5" y="13" width="2" height="2" rx="1" fill="#6E737C"/>
<rect x="9.5" y="13" width="25" height="2" rx="1" fill="#D8DADF"/>
<rect x="5.5" y="19" width="2" height="2" rx="1" fill="#6E737C"/>
<rect x="9.5" y="19" width="25" height="2" rx="1" fill="#D8DADF"/>
<rect x="5.5" y="25" width="2" height="2" rx="1" fill="#6E737C"/>
<rect x="9.5" y="25" width="25" height="2" rx="1" fill="#D8DADF"/>
</svg>
