<svg width="32" height="32" viewBox="0 0 32 32" fill="none" xmlns="http://www.w3.org/2000/svg">
    <path d="M0 4C0 1.79086 1.79086 0 4 0H28C30.2091 0 32 1.79086 32 4V28C32 30.2091 30.2091 32 28 32H4C1.79086 32 0 30.2091 0 28V4Z"
          class="fill-gray-0"/>
    <path d="M5 15.5C5 14.6716 5.67157 14 6.5 14H25.5C26.3284 14 27 14.6716 27 15.5C27 16.3284 26.3284 17 25.5 17H6.5C5.67157 17 5 16.3284 5 15.5Z"
          class="fill-ocean-1"/>
    <path d="M5 20.5C5 19.6716 5.67157 19 6.5 19H11.5C12.3284 19 13 19.6716 13 20.5C13 21.3284 12.3284 22 11.5 22H6.5C5.67157 22 5 21.3284 5 20.5Z"
          class="fill-ocean-1"/>
    <path d="M15 20.5C15 19.6716 15.6716 19 16.5 19H25.5C26.3284 19 27 19.6716 27 20.5C27 21.3284 26.3284 22 25.5 22H16.5C15.6716 22 15 21.3284 15 20.5Z"
          class="fill-ocean-5"/>
    <path d="M5 10.5C5 9.67157 5.67157 9 6.5 9H25.5C26.3284 9 27 9.67157 27 10.5C27 11.3284 26.3284 12 25.5 12H6.5C5.67157 12 5 11.3284 5 10.5Z"
          class="fill-ocean-1"/>
</svg>
