<svg width="32" height="32" viewBox="0 0 32 32" fill="none" xmlns="http://www.w3.org/2000/svg">
    <path d="M0 4C0 1.79086 1.79086 0 4 0H28C30.2091 0 32 1.79086 32 4V28C32 30.2091 30.2091 32 28 32H4C1.79086 32 0 30.2091 0 28V4Z"
          class="fill-gray-0"/>
    <path d="M5 25.5C5 24.6716 5.67157 24 6.5 24H25.5C26.3284 24 27 24.6716 27 25.5C27 26.3284 26.3284 27 25.5 27H6.5C5.67157 27 5 26.3284 5 25.5Z"
          class="fill-ocean-1"/>
    <path d="M5 20.5C5 19.6716 5.67157 19 6.5 19H25.5C26.3284 19 27 19.6716 27 20.5C27 21.3284 26.3284 22 25.5 22H6.5C5.67157 22 5 21.3284 5 20.5Z"
          class="fill-ocean-1"/>
    <path d="M9.5 8C9.5 5.79086 11.2909 4 13.5 4H18.5C20.7091 4 22.5 5.79086 22.5 8V13C22.5 15.2091 20.7091 17 18.5 17H13.5C11.2909 17 9.5 15.2091 9.5 13V8Z"
          class="fill-ocean-5"/>
    <path d="M13 10.415L14.915 12.33L18.745 8.5" class="stroke-gray-0" stroke-linecap="round" stroke-linejoin="round"/>
</svg>
