<svg width="32" height="32" viewBox="0 0 32 32" fill="none" xmlns="http://www.w3.org/2000/svg">
    <path d="M0 4C0 1.79086 1.79086 0 4 0H28C30.2091 0 32 1.79086 32 4V28C32 30.2091 30.2091 32 28 32H4C1.79086 32 0 30.2091 0 28V4Z"
          class="fill-gray-0"/>
    <path d="M5 25.5C5 24.6716 5.67157 24 6.5 24H25.5C26.3284 24 27 24.6716 27 25.5C27 26.3284 26.3284 27 25.5 27H6.5C5.67157 27 5 26.3284 5 25.5Z"
          class="fill-ocean-1"/>
    <path d="M5 20.5C5 19.6716 5.67157 19 6.5 19H25.5C26.3284 19 27 19.6716 27 20.5C27 21.3284 26.3284 22 25.5 22H6.5C5.67157 22 5 21.3284 5 20.5Z"
          class="fill-ocean-1"/>
    <path d="M5 15.5C5 15.2239 5.22386 15 5.5 15H26.5C26.7761 15 27 15.2239 27 15.5C27 15.7761 26.7761 16 26.5 16H5.5C5.22386 16 5 15.7761 5 15.5Z"
          class="fill-ocean-5"/>
    <path d="M5 10.5C5 9.67157 5.67157 9 6.5 9H25.5C26.3284 9 27 9.67157 27 10.5C27 11.3284 26.3284 12 25.5 12H6.5C5.67157 12 5 11.3284 5 10.5Z"
          class="fill-ocean-1"/>
    <path d="M5 5.5C5 4.67157 5.67157 4 6.5 4H25.5C26.3284 4 27 4.67157 27 5.5C27 6.32843 26.3284 7 25.5 7H6.5C5.67157 7 5 6.32843 5 5.5Z"
          class="fill-ocean-1"/>
</svg>
