<svg width="32" height="32" viewBox="0 0 32 32" fill="none" xmlns="http://www.w3.org/2000/svg">
<path d="M0 4C0 1.79086 1.79086 0 4 0H28C30.2091 0 32 1.79086 32 4V28C32 30.2091 30.2091 32 28 32H4C1.79086 32 0 30.2091 0 28V4Z" fill="white"/>
<path d="M5 25.5C5 24.6716 5.67157 24 6.5 24H25.5C26.3284 24 27 24.6716 27 25.5C27 26.3284 26.3284 27 25.5 27H6.5C5.67157 27 5 26.3284 5 25.5Z" fill="#D2E2F3"/>
<path d="M5 20.5C5 19.6716 5.67157 19 6.5 19H25.5C26.3284 19 27 19.6716 27 20.5C27 21.3284 26.3284 22 25.5 22H6.5C5.67157 22 5 21.3284 5 20.5Z" fill="#D2E2F3"/>
<path d="M17.329 6.73622L13.1369 10.9283C12.8804 11.1848 12.7362 11.5328 12.7362 11.8957C12.7362 12.2585 12.8804 12.6065 13.1369 12.8631C13.3935 13.1196 13.7415 13.2638 14.1043 13.2638C14.4672 13.2638 14.8152 13.1196 15.0717 12.8631L19.2638 8.67101C19.7769 8.15787 20.0652 7.46191 20.0652 6.73622C20.0652 6.01053 19.7769 5.31456 19.2638 4.80142C18.7506 4.28828 18.0547 4 17.329 4C16.6033 4 15.9073 4.28828 15.3942 4.80142L11.2021 8.99348C10.4324 9.76319 10 10.8071 10 11.8957C10 12.9842 10.4324 14.0282 11.2021 14.7979C11.9718 15.5676 13.0158 16 14.1043 16C15.1929 16 16.2368 15.5676 17.0065 14.7979L21.1986 10.6058" stroke="#1D67B2" stroke-linecap="round" stroke-linejoin="round"/>
</svg>
