<svg width="32" height="32" viewBox="0 0 32 32" fill="none" xmlns="http://www.w3.org/2000/svg">
    <path d="M0 4C0 1.79086 1.79086 0 4 0H28C30.2091 0 32 1.79086 32 4V28C32 30.2091 30.2091 32 28 32H4C1.79086 32 0 30.2091 0 28V4Z"
          class="fill-gray-0"/>
    <path d="M5 25.5C5 24.6716 5.67157 24 6.5 24H25.5C26.3284 24 27 24.6716 27 25.5C27 26.3284 26.3284 27 25.5 27H6.5C5.67157 27 5 26.3284 5 25.5Z"
          class="fill-ocean-1"/>
    <path d="M5 20.5C5 19.6716 5.67157 19 6.5 19H25.5C26.3284 19 27 19.6716 27 20.5C27 21.3284 26.3284 22 25.5 22H6.5C5.67157 22 5 21.3284 5 20.5Z"
          class="fill-ocean-1"/>
    <path d="M19.7308 17C19.645 17 19.5039 16.994 19.3077 16.982C19.1114 16.97 18.9091 16.958 18.7006 16.9459C18.4921 16.9339 18.2897 16.9219 18.0935 16.9099C17.8972 16.8979 17.7562 16.8919 17.6703 16.8919H16.5849C16.499 16.8919 16.358 16.8979 16.1618 16.9099C15.9655 16.9219 15.7632 16.9339 15.5547 16.9459C15.3462 16.958 15.1438 16.97 14.9476 16.982C14.7513 16.994 14.6103 17 14.5244 17L14.4876 16.9279L14.5428 16.2432L14.6164 16.1712C14.8126 16.1712 14.9966 16.1652 15.1683 16.1532C15.34 16.1291 15.4872 16.0751 15.6099 15.991C15.7202 15.9069 15.8061 15.7988 15.8674 15.6667C15.9287 15.5345 15.9901 15.3003 16.0514 14.964C16.0636 14.8799 16.0698 14.7838 16.0698 14.6757C16.082 14.5556 16.0882 14.4114 16.0882 14.2432C16.1004 14.0751 16.1066 13.8709 16.1066 13.6306C16.1066 13.3904 16.1066 13.0901 16.1066 12.7297V11.2883H10.661V12.3694C10.661 12.8018 10.661 13.1562 10.661 13.4324C10.661 13.6967 10.661 13.9189 10.661 14.0991C10.6733 14.2793 10.6794 14.4354 10.6794 14.5676C10.6917 14.6877 10.704 14.8198 10.7162 14.964C10.7407 15.3003 10.7959 15.5345 10.8818 15.6667C10.9676 15.7988 11.0596 15.9069 11.1577 15.991C11.2681 16.0751 11.4092 16.1291 11.5809 16.1532C11.7649 16.1652 11.955 16.1712 12.1512 16.1712L12.2248 16.2432L12.28 16.9279L12.2432 17C12.1573 17 12.0163 16.994 11.82 16.982C11.6238 16.97 11.4214 16.958 11.2129 16.9459C11.0044 16.9339 10.8021 16.9219 10.6058 16.9099C10.4096 16.8979 10.2686 16.8919 10.1827 16.8919H9.09727C9.01142 16.8919 8.87037 16.8979 8.67414 16.9099C8.4779 16.9219 8.27553 16.9339 8.06703 16.9459C7.85853 16.958 7.65616 16.97 7.45993 16.982C7.26369 16.994 7.12265 17 7.03679 17L7 16.9279L7.05519 16.2432L7.14718 16.1712C7.34341 16.1712 7.52738 16.1652 7.69909 16.1532C7.8708 16.1291 8.01184 16.0751 8.12222 15.991C8.22034 15.9069 8.31233 15.7988 8.39818 15.6667C8.4963 15.5345 8.55762 15.3003 8.58215 14.964C8.58215 14.8799 8.58215 14.7838 8.58215 14.6757C8.59442 14.5556 8.60055 14.4114 8.60055 14.2432C8.61281 14.0751 8.61895 13.8709 8.61895 13.6306C8.61895 13.3904 8.61895 13.0901 8.61895 12.7297V9.79279C8.61895 9.37237 8.61895 9.01802 8.61895 8.72973C8.61895 8.44144 8.61281 8.1952 8.60055 7.99099C8.60055 7.78679 8.59442 7.61261 8.58215 7.46847C8.58215 7.32432 8.57602 7.18018 8.56376 7.03604C8.53923 6.72372 8.48403 6.4955 8.39818 6.35135C8.31233 6.20721 8.22034 6.09309 8.12222 6.00901C8.01184 5.92493 7.8708 5.87688 7.69909 5.86486C7.52738 5.84084 7.34341 5.82883 7.14718 5.82883L7.05519 5.75676L7 5.07207L7.03679 5C7.12265 5 7.26369 5.00601 7.45993 5.01802C7.65616 5.03003 7.85853 5.04204 8.06703 5.05405C8.27553 5.06607 8.4779 5.07808 8.67414 5.09009C8.87037 5.1021 9.01142 5.10811 9.09727 5.10811H10.1827C10.2686 5.10811 10.4096 5.1021 10.6058 5.09009C10.8021 5.07808 11.0044 5.06607 11.2129 5.05405C11.4214 5.04204 11.6238 5.03003 11.82 5.01802C12.0163 5.00601 12.1573 5 12.2432 5L12.28 5.07207L12.2248 5.75676L12.1512 5.82883C11.9795 5.82883 11.7955 5.84084 11.5993 5.86486C11.4153 5.87688 11.2681 5.92493 11.1577 6.00901C11.0596 6.09309 10.9615 6.2012 10.8634 6.33333C10.7775 6.46547 10.7285 6.6997 10.7162 7.03604C10.704 7.2042 10.6917 7.36036 10.6794 7.5045C10.6794 7.64865 10.6733 7.81682 10.661 8.00901C10.661 8.2012 10.661 8.43544 10.661 8.71171C10.661 8.98799 10.661 9.34234 10.661 9.77478V9.95496H16.1066V9.79279C16.1066 9.37237 16.1066 9.01802 16.1066 8.72973C16.1066 8.44144 16.1004 8.1952 16.0882 7.99099C16.0882 7.78679 16.082 7.61261 16.0698 7.46847C16.0698 7.32432 16.0636 7.18018 16.0514 7.03604C16.0269 6.6997 15.9717 6.46547 15.8858 6.33333C15.8 6.2012 15.708 6.09309 15.6099 6.00901C15.4995 5.92493 15.3523 5.87688 15.1683 5.86486C14.9966 5.84084 14.8126 5.82883 14.6164 5.82883L14.5428 5.75676L14.4876 5.07207L14.5244 5C14.6103 5 14.7513 5.00601 14.9476 5.01802C15.1438 5.03003 15.3462 5.04204 15.5547 5.05405C15.7632 5.06607 15.9655 5.07808 16.1618 5.09009C16.358 5.1021 16.499 5.10811 16.5849 5.10811H17.6703C17.7562 5.10811 17.8972 5.1021 18.0935 5.09009C18.2897 5.07808 18.4921 5.06607 18.7006 5.05405C18.9091 5.04204 19.1114 5.03003 19.3077 5.01802C19.5039 5.00601 19.645 5 19.7308 5L19.7676 5.07207L19.7124 5.75676L19.6204 5.82883C19.4242 5.82883 19.2341 5.84084 19.0501 5.86486C18.8784 5.87688 18.7435 5.92493 18.6454 6.00901C18.5473 6.09309 18.4553 6.2012 18.3694 6.33333C18.2958 6.46547 18.2345 6.6997 18.1854 7.03604C18.1732 7.2042 18.1609 7.36036 18.1487 7.5045C18.1487 7.64865 18.1487 7.81682 18.1487 8.00901C18.1487 8.2012 18.1487 8.43544 18.1487 8.71171C18.1487 8.98799 18.1487 9.34234 18.1487 9.77478V12.3694C18.1487 12.8018 18.1487 13.1562 18.1487 13.4324C18.1487 13.6967 18.1487 13.9189 18.1487 14.0991C18.1487 14.2793 18.1487 14.4354 18.1487 14.5676C18.1609 14.6877 18.1732 14.8198 18.1854 14.964C18.21 15.3003 18.2652 15.5345 18.351 15.6667C18.4491 15.7988 18.5473 15.9069 18.6454 15.991C18.7558 16.0751 18.8968 16.1291 19.0685 16.1532C19.2402 16.1652 19.4242 16.1712 19.6204 16.1712L19.7124 16.2432L19.7676 16.9279L19.7308 17Z"
          class="fill-ocean-5"/>
    <path d="M21.3758 11.4865L21.3942 11.4144C21.8234 11.2583 22.222 11.1021 22.59 10.9459C22.9702 10.7778 23.3381 10.5676 23.6938 10.3153H23.7674L24.025 10.4054C23.9882 10.7898 23.9636 11.1982 23.9514 11.6306C23.9514 12.0511 23.9514 12.5556 23.9514 13.1441V14.1351C23.9514 14.3874 23.9514 14.5976 23.9514 14.7658C23.9514 14.9219 23.9514 15.0601 23.9514 15.1802C23.9514 15.2883 23.9514 15.3844 23.9514 15.4685C23.9636 15.5526 23.9759 15.6486 23.9882 15.7568C24.0004 15.9129 24.0311 16.033 24.0801 16.1171C24.1415 16.1892 24.2028 16.2432 24.2641 16.2793C24.3254 16.3273 24.4236 16.3694 24.5585 16.4054C24.7056 16.4294 24.8344 16.4414 24.9448 16.4414L25 16.9459C24.9387 16.9459 24.859 16.9399 24.7608 16.9279C24.6627 16.9279 24.5523 16.9219 24.4297 16.9099C24.3193 16.9099 24.2089 16.9099 24.0985 16.9099C24.0004 16.9099 23.9268 16.9099 23.8778 16.9099H22.7004C22.639 16.9099 22.5532 16.9099 22.4428 16.9099C22.3447 16.9099 22.2343 16.9099 22.1117 16.9099C22.0013 16.9219 21.8909 16.9279 21.7805 16.9279C21.6824 16.9399 21.6088 16.9459 21.5597 16.9459L21.6149 16.4414C21.7253 16.4414 21.8541 16.4294 22.0013 16.4054C22.1484 16.3814 22.2588 16.3393 22.3324 16.2793C22.3937 16.2312 22.4428 16.1712 22.4796 16.0991C22.5287 16.015 22.5654 15.9009 22.59 15.7568C22.6022 15.6727 22.6084 15.5946 22.6084 15.5225C22.6206 15.4505 22.6268 15.3664 22.6268 15.2703C22.6268 15.1622 22.6268 15.042 22.6268 14.9099C22.6268 14.7658 22.6268 14.5916 22.6268 14.3874V13.1802C22.6268 12.976 22.6268 12.8138 22.6268 12.6937C22.6268 12.5616 22.6268 12.4535 22.6268 12.3694C22.6268 12.2853 22.6206 12.2132 22.6084 12.1532C22.6084 12.0811 22.6022 12.003 22.59 11.9189L21.3758 12.2252V11.4865Z"
          class="fill-ocean-5"/>
</svg>
