<svg width="40" height="40" viewBox="0 0 40 40" fill="none" xmlns="http://www.w3.org/2000/svg">
<path d="M0 6C0 2.68629 2.68629 0 6 0H34C37.3137 0 40 2.68629 40 6V34C40 37.3137 37.3137 40 34 40H6C2.68629 40 0 37.3137 0 34V6Z" fill="#FCFCFD"/>
<path d="M8.79901 18V10.7273H9.89631V13.8878H13.522V10.7273H14.6229V18H13.522V14.8288H9.89631V18H8.79901ZM16.1214 18V17.2045L18.5824 14.6548C18.8452 14.3778 19.0618 14.1352 19.2322 13.9268C19.4051 13.7161 19.5341 13.5161 19.6193 13.3267C19.7045 13.1373 19.7472 12.9361 19.7472 12.723C19.7472 12.4815 19.6903 12.2732 19.5767 12.098C19.4631 11.9205 19.308 11.7843 19.1115 11.6896C18.915 11.5926 18.6937 11.544 18.4474 11.544C18.187 11.544 17.9598 11.5973 17.7656 11.7038C17.5715 11.8104 17.4223 11.9607 17.3182 12.1548C17.214 12.349 17.1619 12.5762 17.1619 12.8366H16.1143C16.1143 12.3939 16.2161 12.0069 16.4197 11.6754C16.6233 11.344 16.9027 11.0871 17.2578 10.9048C17.6129 10.7202 18.0166 10.6278 18.4688 10.6278C18.9257 10.6278 19.3281 10.719 19.6761 10.9013C20.0265 11.0812 20.3 11.3274 20.4964 11.6399C20.6929 11.95 20.7912 12.3004 20.7912 12.6911C20.7912 12.9609 20.7403 13.2249 20.6385 13.483C20.5391 13.741 20.3651 14.0286 20.1165 14.3459C19.8679 14.6607 19.5223 15.0431 19.0795 15.4929L17.6342 17.0057V17.0589H20.9084V18H16.1214Z" fill="#3B3C40"/>
<rect x="8" y="21" width="24" height="2" rx="1" fill="#D8DADF"/>
<rect x="8" y="25" width="24" height="2" rx="1" fill="#D8DADF"/>
<rect x="8" y="29" width="11" height="2" rx="1" fill="#D8DADF"/>
</svg>
