<svg width="40" height="40" viewBox="0 0 40 40" fill="none" xmlns="http://www.w3.org/2000/svg">
<path d="M0 6C0 2.68629 2.68629 0 6 0H34C37.3137 0 40 2.68629 40 6V34C40 37.3137 37.3137 40 34 40H6C2.68629 40 0 37.3137 0 34V6Z" fill="#FCFCFD"/>
<path d="M8.6392 18V12.1818H9.51705V14.7102H12.4176V12.1818H13.2983V18H12.4176V15.4631H9.51705V18H8.6392ZM16.5227 18.0795C16.1326 18.0795 15.7841 18.0123 15.4773 17.8778C15.1723 17.7434 14.9309 17.5568 14.7528 17.3182C14.5767 17.0777 14.482 16.7992 14.4688 16.483H15.3608C15.3722 16.6553 15.4299 16.8049 15.5341 16.9318C15.6402 17.0568 15.7784 17.1534 15.9489 17.2216C16.1193 17.2898 16.3087 17.3239 16.517 17.3239C16.7462 17.3239 16.9489 17.2841 17.125 17.2045C17.303 17.125 17.4422 17.0142 17.5426 16.8722C17.643 16.7282 17.6932 16.5625 17.6932 16.375C17.6932 16.1799 17.643 16.0085 17.5426 15.8608C17.4441 15.7112 17.2992 15.5937 17.108 15.5085C16.9186 15.4233 16.6894 15.3807 16.4205 15.3807H15.929V14.6648H16.4205C16.6364 14.6648 16.8258 14.6259 16.9886 14.5483C17.1534 14.4706 17.2822 14.3627 17.375 14.2244C17.4678 14.0843 17.5142 13.9205 17.5142 13.733C17.5142 13.553 17.4735 13.3968 17.392 13.2642C17.3125 13.1297 17.1989 13.0246 17.0511 12.9489C16.9053 12.8731 16.733 12.8352 16.5341 12.8352C16.3447 12.8352 16.1676 12.8703 16.0028 12.9403C15.84 13.0085 15.7074 13.107 15.6051 13.2358C15.5028 13.3627 15.4479 13.5152 15.4403 13.6932H14.5909C14.6004 13.3788 14.6932 13.1023 14.8693 12.8636C15.0473 12.625 15.2822 12.4384 15.5739 12.304C15.8655 12.1695 16.1894 12.1023 16.5455 12.1023C16.9186 12.1023 17.2405 12.1752 17.5114 12.321C17.7841 12.465 17.9943 12.6572 18.142 12.8977C18.2917 13.1383 18.3655 13.4015 18.3636 13.6875C18.3655 14.0133 18.2746 14.2898 18.0909 14.517C17.9091 14.7443 17.6667 14.8968 17.3636 14.9744V15.0199C17.75 15.0786 18.0492 15.232 18.2614 15.4801C18.4754 15.7282 18.5814 16.036 18.5795 16.4034C18.5814 16.7235 18.4924 17.0104 18.3125 17.2642C18.1345 17.518 17.8911 17.7178 17.5824 17.8636C17.2737 18.0076 16.9205 18.0795 16.5227 18.0795Z" fill="#3B3C40"/>
<rect x="8" y="21" width="24" height="2" rx="1" fill="#D8DADF"/>
<rect x="8" y="25" width="24" height="2" rx="1" fill="#D8DADF"/>
<rect x="8" y="29" width="11" height="2" rx="1" fill="#D8DADF"/>
</svg>
