<svg width="32" height="32" viewBox="0 0 32 32" fill="none" xmlns="http://www.w3.org/2000/svg">
<path d="M0 4C0 1.79086 1.79086 0 4 0H28C30.2091 0 32 1.79086 32 4V28C32 30.2091 30.2091 32 28 32H4C1.79086 32 0 30.2091 0 28V4Z" fill="white"/>
<path d="M5 25.5C5 24.6716 5.67157 24 6.5 24H25.5C26.3284 24 27 24.6716 27 25.5C27 26.3284 26.3284 27 25.5 27H6.5C5.67157 27 5 26.3284 5 25.5Z" fill="#D2E2F3"/>
<path d="M5 20.5C5 19.6716 5.67157 19 6.5 19H25.5C26.3284 19 27 19.6716 27 20.5C27 21.3284 26.3284 22 25.5 22H6.5C5.67157 22 5 21.3284 5 20.5Z" fill="#D2E2F3"/>
<path d="M19.4685 17C19.3844 17 19.2462 16.994 19.0541 16.982C18.8619 16.97 18.6637 16.958 18.4595 16.9459C18.2553 16.9339 18.0571 16.9219 17.8649 16.9099C17.6727 16.8979 17.5345 16.8919 17.4504 16.8919H16.3874C16.3033 16.8919 16.1652 16.8979 15.973 16.9099C15.7808 16.9219 15.5826 16.9339 15.3784 16.9459C15.1742 16.958 14.976 16.97 14.7838 16.982C14.5916 16.994 14.4535 17 14.3694 17L14.3333 16.9279L14.3874 16.2432L14.4595 16.1712C14.6517 16.1712 14.8318 16.1652 15 16.1532C15.1682 16.1291 15.3123 16.0751 15.4324 15.991C15.5405 15.9069 15.6246 15.7988 15.6847 15.6667C15.7447 15.5345 15.8048 15.3003 15.8649 14.964C15.8769 14.8799 15.8829 14.7838 15.8829 14.6757C15.8949 14.5556 15.9009 14.4114 15.9009 14.2432C15.9129 14.0751 15.9189 13.8709 15.9189 13.6306C15.9189 13.3904 15.9189 13.0901 15.9189 12.7297V11.2883H10.5856V12.3694C10.5856 12.8018 10.5856 13.1562 10.5856 13.4324C10.5856 13.6967 10.5856 13.9189 10.5856 14.0991C10.5976 14.2793 10.6036 14.4354 10.6036 14.5676C10.6156 14.6877 10.6276 14.8198 10.6396 14.964C10.6637 15.3003 10.7177 15.5345 10.8018 15.6667C10.8859 15.7988 10.976 15.9069 11.0721 15.991C11.1802 16.0751 11.3183 16.1291 11.4865 16.1532C11.6667 16.1652 11.8529 16.1712 12.045 16.1712L12.1171 16.2432L12.1712 16.9279L12.1351 17C12.0511 17 11.9129 16.994 11.7207 16.982C11.5285 16.97 11.3303 16.958 11.1261 16.9459C10.9219 16.9339 10.7237 16.9219 10.5315 16.9099C10.3393 16.8979 10.2012 16.8919 10.1171 16.8919H9.05405C8.96997 16.8919 8.83183 16.8979 8.63964 16.9099C8.44745 16.9219 8.24925 16.9339 8.04505 16.9459C7.84084 16.958 7.64264 16.97 7.45045 16.982C7.25826 16.994 7.12012 17 7.03604 17L7 16.9279L7.05405 16.2432L7.14414 16.1712C7.33634 16.1712 7.51652 16.1652 7.68468 16.1532C7.85285 16.1291 7.99099 16.0751 8.0991 15.991C8.1952 15.9069 8.28529 15.7988 8.36937 15.6667C8.46547 15.5345 8.52553 15.3003 8.54955 14.964C8.54955 14.8799 8.54955 14.7838 8.54955 14.6757C8.56156 14.5556 8.56757 14.4114 8.56757 14.2432C8.57958 14.0751 8.58559 13.8709 8.58559 13.6306C8.58559 13.3904 8.58559 13.0901 8.58559 12.7297V9.79279C8.58559 9.37237 8.58559 9.01802 8.58559 8.72973C8.58559 8.44144 8.57958 8.1952 8.56757 7.99099C8.56757 7.78679 8.56156 7.61261 8.54955 7.46847C8.54955 7.32432 8.54354 7.18018 8.53153 7.03604C8.50751 6.72372 8.45345 6.4955 8.36937 6.35135C8.28529 6.20721 8.1952 6.09309 8.0991 6.00901C7.99099 5.92493 7.85285 5.87688 7.68468 5.86486C7.51652 5.84084 7.33634 5.82883 7.14414 5.82883L7.05405 5.75676L7 5.07207L7.03604 5C7.12012 5 7.25826 5.00601 7.45045 5.01802C7.64264 5.03003 7.84084 5.04204 8.04505 5.05405C8.24925 5.06607 8.44745 5.07808 8.63964 5.09009C8.83183 5.1021 8.96997 5.10811 9.05405 5.10811H10.1171C10.2012 5.10811 10.3393 5.1021 10.5315 5.09009C10.7237 5.07808 10.9219 5.06607 11.1261 5.05405C11.3303 5.04204 11.5285 5.03003 11.7207 5.01802C11.9129 5.00601 12.0511 5 12.1351 5L12.1712 5.07207L12.1171 5.75676L12.045 5.82883C11.8769 5.82883 11.6967 5.84084 11.5045 5.86486C11.3243 5.87688 11.1802 5.92493 11.0721 6.00901C10.976 6.09309 10.8799 6.2012 10.7838 6.33333C10.6997 6.46547 10.6517 6.6997 10.6396 7.03604C10.6276 7.2042 10.6156 7.36036 10.6036 7.5045C10.6036 7.64865 10.5976 7.81682 10.5856 8.00901C10.5856 8.2012 10.5856 8.43544 10.5856 8.71171C10.5856 8.98799 10.5856 9.34234 10.5856 9.77478V9.95496H15.9189V9.79279C15.9189 9.37237 15.9189 9.01802 15.9189 8.72973C15.9189 8.44144 15.9129 8.1952 15.9009 7.99099C15.9009 7.78679 15.8949 7.61261 15.8829 7.46847C15.8829 7.32432 15.8769 7.18018 15.8649 7.03604C15.8408 6.6997 15.7868 6.46547 15.7027 6.33333C15.6186 6.2012 15.5285 6.09309 15.4324 6.00901C15.3243 5.92493 15.1802 5.87688 15 5.86486C14.8318 5.84084 14.6517 5.82883 14.4595 5.82883L14.3874 5.75676L14.3333 5.07207L14.3694 5C14.4535 5 14.5916 5.00601 14.7838 5.01802C14.976 5.03003 15.1742 5.04204 15.3784 5.05405C15.5826 5.06607 15.7808 5.07808 15.973 5.09009C16.1652 5.1021 16.3033 5.10811 16.3874 5.10811H17.4504C17.5345 5.10811 17.6727 5.1021 17.8649 5.09009C18.0571 5.07808 18.2553 5.06607 18.4595 5.05405C18.6637 5.04204 18.8619 5.03003 19.0541 5.01802C19.2462 5.00601 19.3844 5 19.4685 5L19.5045 5.07207L19.4504 5.75676L19.3604 5.82883C19.1682 5.82883 18.982 5.84084 18.8018 5.86486C18.6336 5.87688 18.5015 5.92493 18.4054 6.00901C18.3093 6.09309 18.2192 6.2012 18.1351 6.33333C18.0631 6.46547 18.003 6.6997 17.955 7.03604C17.9429 7.2042 17.9309 7.36036 17.9189 7.5045C17.9189 7.64865 17.9189 7.81682 17.9189 8.00901C17.9189 8.2012 17.9189 8.43544 17.9189 8.71171C17.9189 8.98799 17.9189 9.34234 17.9189 9.77478V12.3694C17.9189 12.8018 17.9189 13.1562 17.9189 13.4324C17.9189 13.6967 17.9189 13.9189 17.9189 14.0991C17.9189 14.2793 17.9189 14.4354 17.9189 14.5676C17.9309 14.6877 17.9429 14.8198 17.955 14.964C17.979 15.3003 18.033 15.5345 18.1171 15.6667C18.2132 15.7988 18.3093 15.9069 18.4054 15.991C18.5135 16.0751 18.6517 16.1291 18.8198 16.1532C18.988 16.1652 19.1682 16.1712 19.3604 16.1712L19.4504 16.2432L19.5045 16.9279L19.4685 17Z" fill="#1D67B2"/>
<path d="M21.9444 14.982C21.9924 15.3423 22.1366 15.6066 22.3768 15.7748C22.6291 15.9309 22.9054 16.009 23.2057 16.009C23.554 16.009 23.8663 15.9069 24.1426 15.7027C24.4189 15.4985 24.557 15.2222 24.557 14.8739C24.557 14.5375 24.4549 14.2553 24.2507 14.027C24.0585 13.7988 23.7642 13.6847 23.3678 13.6847H22.6111L22.7192 12.9459C23.2357 12.9339 23.6141 12.8198 23.8543 12.6036C24.1066 12.3754 24.2327 12.1351 24.2327 11.8829C24.2327 11.6426 24.1306 11.4505 23.9264 11.3063C23.7222 11.1502 23.4879 11.0721 23.2237 11.0721C22.9594 11.0721 22.7072 11.1502 22.4669 11.3063C22.2387 11.4625 22.1246 11.6727 22.1246 11.9369C22.1246 12.021 22.1306 12.0811 22.1426 12.1171H21.3858L21.2957 11.3243C21.3678 11.2042 21.4519 11.0781 21.548 10.9459C21.6561 10.8138 21.7882 10.6937 21.9444 10.5856C22.1006 10.4775 22.2867 10.3934 22.503 10.3333C22.7192 10.2613 22.9834 10.2252 23.2957 10.2252C23.6201 10.2252 23.9084 10.2733 24.1606 10.3694C24.4249 10.4535 24.6471 10.5736 24.8273 10.7297C25.0075 10.8739 25.1396 11.048 25.2237 11.2523C25.3198 11.4444 25.3678 11.6426 25.3678 11.8468C25.3678 12.1111 25.3018 12.3694 25.1696 12.6216C25.0495 12.8619 24.8333 13.0661 24.521 13.2342C24.9414 13.3303 25.2417 13.5225 25.4219 13.8108C25.6021 14.0991 25.6921 14.4174 25.6921 14.7658C25.6921 15.018 25.6321 15.2703 25.512 15.5225C25.4039 15.7748 25.2417 16.003 25.0255 16.2072C24.8093 16.4114 24.545 16.5796 24.2327 16.7117C23.9324 16.8318 23.59 16.8919 23.2057 16.8919C22.7012 16.8919 22.2807 16.7958 21.9444 16.6036C21.6201 16.3994 21.3378 16.1231 21.0975 15.7748L21.2057 14.982H21.9444Z" fill="#1D67B2"/>
</svg>
