<svg width="32" height="32" viewBox="0 0 32 32" fill="none" xmlns="http://www.w3.org/2000/svg">
    <path d="M0 4C0 1.79086 1.79086 0 4 0H28C30.2091 0 32 1.79086 32 4V28C32 30.2091 30.2091 32 28 32H4C1.79086 32 0 30.2091 0 28V4Z"
          class="fill-gray-0"/>
    <path d="M5 25.5C5 24.6716 5.67157 24 6.5 24H25.5C26.3284 24 27 24.6716 27 25.5C27 26.3284 26.3284 27 25.5 27H6.5C5.67157 27 5 26.3284 5 25.5Z"
          class="fill-ocean-1"/>
    <path d="M5 20.5C5 19.6716 5.67157 19 6.5 19H25.5C26.3284 19 27 19.6716 27 20.5C27 21.3284 26.3284 22 25.5 22H6.5C5.67157 22 5 21.3284 5 20.5Z"
          class="fill-ocean-1"/>
    <path d="M15.474 13.2934V8.92979H16.6843V13.2934H15.474ZM16.082 8.36729C15.9021 8.36729 15.7477 8.30763 15.6189 8.18831C15.492 8.0671 15.4286 7.92221 15.4286 7.75365C15.4286 7.58699 15.492 7.44399 15.6189 7.32468C15.7477 7.20346 15.9021 7.14286 16.082 7.14286C16.2619 7.14286 16.4153 7.20346 16.5422 7.32468C16.671 7.44399 16.7354 7.58699 16.7354 7.75365C16.7354 7.92221 16.671 8.0671 16.5422 8.18831C16.4153 8.30763 16.2619 8.36729 16.082 8.36729Z"
          class="fill-ocean-5"/>
    <path fill-rule="evenodd" clip-rule="evenodd"
          d="M22 10C22 13.3137 19.3137 16 16 16C12.6863 16 10 13.3137 10 10C10 6.68629 12.6863 4 16 4C19.3137 4 22 6.68629 22 10ZM16 15.1429C18.8403 15.1429 21.1429 12.8403 21.1429 10C21.1429 7.15968 18.8403 4.85714 16 4.85714C13.1597 4.85714 10.8571 7.15968 10.8571 10C10.8571 12.8403 13.1597 15.1429 16 15.1429Z"
          class="fill-ocean-5"/>
</svg>
