<svg width="32" height="32" viewBox="0 0 32 32" fill="none" xmlns="http://www.w3.org/2000/svg">
<path d="M0 4C0 1.79086 1.79086 0 4 0H28C30.2091 0 32 1.79086 32 4V28C32 30.2091 30.2091 32 28 32H4C1.79086 32 0 30.2091 0 28V4Z" fill="white"/>
<path d="M5 25.5C5 24.6716 5.67157 24 6.5 24H25.5C26.3284 24 27 24.6716 27 25.5C27 26.3284 26.3284 27 25.5 27H6.5C5.67157 27 5 26.3284 5 25.5Z" fill="#D2E2F3"/>
<path d="M5 20.5C5 19.6716 5.67157 19 6.5 19H25.5C26.3284 19 27 19.6716 27 20.5C27 21.3284 26.3284 22 25.5 22H6.5C5.67157 22 5 21.3284 5 20.5Z" fill="#D2E2F3"/>
<path d="M18.25 7.5H18.2575M10 12.75L13 9.74996C13.342 9.42083 13.73 9.24756 14.125 9.24756C14.52 9.24756 14.908 9.42083 15.25 9.74996L19 13.5M17.5 12L18.25 11.25C18.592 10.9208 18.98 10.7476 19.375 10.7476C19.77 10.7476 20.158 10.9208 20.5 11.25L22 12.75M12.25 4.5H19.75C20.9926 4.5 22 5.50736 22 6.75V14.25C22 15.4926 20.9926 16.5 19.75 16.5H12.25C11.0074 16.5 10 15.4926 10 14.25V6.75C10 5.50736 11.0074 4.5 12.25 4.5Z" stroke="#1D67B2" stroke-linecap="round" stroke-linejoin="round"/>
</svg>
