<svg width="32" height="32" viewBox="0 0 32 32" fill="none" xmlns="http://www.w3.org/2000/svg">
<path d="M0 4C0 1.79086 1.79086 0 4 0H28C30.2091 0 32 1.79086 32 4V28C32 30.2091 30.2091 32 28 32H4C1.79086 32 0 30.2091 0 28V4Z" fill="white"/>
<path d="M5 25.5C5 24.6716 5.67157 24 6.5 24H25.5C26.3284 24 27 24.6716 27 25.5C27 26.3284 26.3284 27 25.5 27H6.5C5.67157 27 5 26.3284 5 25.5Z" fill="#D2E2F3"/>
<path d="M5 20.5C5 19.6716 5.67157 19 6.5 19H25.5C26.3284 19 27 19.6716 27 20.5C27 21.3284 26.3284 22 25.5 22H6.5C5.67157 22 5 21.3284 5 20.5Z" fill="#D2E2F3"/>
<path d="M15.1311 11.8689C15.3541 12.0965 15.6203 12.2774 15.9142 12.4009C16.208 12.5243 16.5235 12.5879 16.8422 12.5879C17.1609 12.5879 17.4764 12.5243 17.7702 12.4009C18.0641 12.2774 18.3303 12.0965 18.5533 11.8689L21.2912 9.13106C21.745 8.67724 21.9999 8.06172 21.9999 7.41992C21.9999 6.77812 21.745 6.1626 21.2912 5.70878C20.8373 5.25495 20.2218 5 19.58 5C18.9382 5 18.3227 5.25495 17.8689 5.70878L17.5266 6.05101M17.8689 9.13112C17.6458 8.90347 17.3796 8.72261 17.0858 8.59915C16.792 8.47568 16.4765 8.41209 16.1577 8.41209C15.839 8.41209 15.5235 8.47568 15.2297 8.59915C14.9359 8.72261 14.6697 8.90347 14.4466 9.13112L11.7088 11.8689C11.255 12.3228 11 12.9383 11 13.5801C11 14.2219 11.255 14.8374 11.7088 15.2912C12.1626 15.745 12.7781 16 13.4199 16C14.0617 16 14.6772 15.745 15.1311 15.2912L15.4733 14.949" stroke="#1D67B2" stroke-linecap="round" stroke-linejoin="round"/>
</svg>
