<svg width="32" height="32" viewBox="0 0 32 32" fill="none" xmlns="http://www.w3.org/2000/svg">
<path d="M0 4C0 1.79086 1.79086 0 4 0H28C30.2091 0 32 1.79086 32 4V28C32 30.2091 30.2091 32 28 32H4C1.79086 32 0 30.2091 0 28V4Z" fill="white"/>
<path d="M5 25.5C5 24.6716 5.67157 24 6.5 24H25.5C26.3284 24 27 24.6716 27 25.5C27 26.3284 26.3284 27 25.5 27H6.5C5.67157 27 5 26.3284 5 25.5Z" fill="#D2E2F3"/>
<path d="M5 20.5C5 19.6716 5.67157 19 6.5 19H25.5C26.3284 19 27 19.6716 27 20.5C27 21.3284 26.3284 22 25.5 22H6.5C5.67157 22 5 21.3284 5 20.5Z" fill="#D2E2F3"/>
<path d="M18.9444 10.507C18.9444 11.8571 17.85 12.9515 16.5 12.9515C15.15 12.9515 14.0556 11.8571 14.0556 10.507C14.0556 9.15702 15.15 8.0626 16.5 8.0626C17.85 8.0626 18.9444 9.15702 18.9444 10.507ZM18.9444 10.507L18.9444 11.4237C18.9444 11.8289 19.1054 12.2175 19.3919 12.504C19.6784 12.7905 20.067 12.9515 20.4722 12.9515C20.8774 12.9515 21.266 12.7905 21.5525 12.504C21.839 12.2175 22 11.8289 22 11.4237V10.5071C22.0015 9.32524 21.6223 8.17436 20.9186 7.22491C20.2148 6.27546 19.224 5.57794 18.0928 5.23568C16.9616 4.89343 15.7503 4.92464 14.6382 5.3247C13.5262 5.72476 12.5725 6.47238 11.9186 7.45681C11.2647 8.44125 10.9453 9.61013 11.0077 10.7903C11.0701 11.9705 11.5109 13.0992 12.265 14.0092C13.019 14.9192 14.0461 15.5621 15.1942 15.8427C16.3422 16.1233 17.5501 16.0267 18.6389 15.5671" stroke="#1D67B2" stroke-linecap="round" stroke-linejoin="round"/>
</svg>
