<svg width="32" height="32" viewBox="0 0 32 32" fill="none" xmlns="http://www.w3.org/2000/svg">
<path d="M0 4C0 1.79086 1.79086 0 4 0H28C30.2091 0 32 1.79086 32 4V28C32 30.2091 30.2091 32 28 32H4C1.79086 32 0 30.2091 0 28V4Z" fill="white"/>
<rect x="5" y="5" width="10" height="22" rx="2" fill="#D2E2F3"/>
<rect x="17" y="5" width="10" height="22" rx="2" fill="#D2E2F3"/>
<path d="M6.7998 16.0422C6.7998 15.9578 6.81471 15.8758 6.84451 15.7963C6.87929 15.7168 6.92648 15.6473 6.98609 15.5877C7.04571 15.5231 7.11525 15.4734 7.19474 15.4386C7.27422 15.3989 7.36116 15.379 7.45554 15.379C7.53999 15.379 7.62196 15.3989 7.70144 15.4386C7.78093 15.4734 7.85048 15.5231 7.91009 15.5877C7.9697 15.6473 8.01689 15.7168 8.05167 15.7963C8.09141 15.8758 8.11128 15.9578 8.11128 16.0422C8.11128 16.231 8.04422 16.3875 7.91009 16.5117C7.77596 16.6309 7.62444 16.6905 7.45554 16.6905C7.26677 16.6905 7.11029 16.6309 6.98609 16.5117C6.8619 16.3875 6.7998 16.231 6.7998 16.0422Z" fill="#1D67B2"/>
<path d="M12.7025 18.25C12.6677 18.25 12.6131 18.2475 12.5386 18.2425C12.4641 18.2376 12.3846 18.2326 12.3001 18.2276C12.2157 18.2227 12.1362 18.2177 12.0617 18.2127C11.9872 18.2078 11.9325 18.2053 11.8977 18.2053H11.1749C11.1402 18.2053 11.0855 18.2078 11.011 18.2127C10.9365 18.2177 10.857 18.2227 10.7726 18.2276C10.6931 18.2326 10.6161 18.2376 10.5416 18.2425C10.467 18.2475 10.4124 18.25 10.3776 18.25L10.3627 18.2202L10.3851 17.937L10.4223 17.9072C10.4968 17.9072 10.5838 17.9047 10.6831 17.8998C10.7875 17.8948 10.862 17.8725 10.9067 17.8327C10.9464 17.7979 10.9862 17.7532 11.0259 17.6986C11.0656 17.6439 11.093 17.5471 11.1079 17.408C11.1128 17.3732 11.1153 17.3335 11.1153 17.2887C11.1203 17.2391 11.1228 17.1795 11.1228 17.1099C11.1277 17.0404 11.1302 16.9559 11.1302 16.8566C11.1302 16.7572 11.1302 16.633 11.1302 16.484V15.1203C11.1302 14.8471 11.1277 14.6037 11.1228 14.3901C11.1178 14.1765 11.1128 14.0175 11.1079 13.9132H11.0259C10.8371 13.9132 10.6807 13.9157 10.5565 13.9206C10.4323 13.9206 10.3329 13.9256 10.2584 13.9355C10.1839 13.9405 10.1268 13.948 10.087 13.9579C10.0522 13.9678 10.0274 13.9803 10.0125 13.9952C9.95785 14.02 9.91314 14.0597 9.87837 14.1144C9.84359 14.169 9.82124 14.2336 9.8113 14.3081L9.7815 14.3379H9.46108L9.51324 13.3394L9.54305 13.2724L9.58775 13.25C9.6275 13.2649 9.71443 13.2798 9.84856 13.2947C9.98269 13.3046 10.1292 13.3121 10.2882 13.3171C10.4472 13.322 10.5987 13.327 10.7427 13.332C10.8918 13.332 10.9986 13.332 11.0632 13.332H12.0021C12.0666 13.332 12.171 13.332 12.315 13.332C12.4641 13.327 12.6181 13.322 12.777 13.3171C12.936 13.3121 13.0825 13.3046 13.2167 13.2947C13.3508 13.2798 13.4377 13.2649 13.4775 13.25L13.5222 13.2724L13.552 13.3394L13.6116 14.3379H13.2837L13.2539 14.3081C13.244 14.2336 13.2216 14.169 13.1869 14.1144C13.1521 14.0597 13.1074 14.02 13.0527 13.9952C13.0378 13.9753 13.0105 13.9604 12.9708 13.9504C12.936 13.9355 12.8813 13.9256 12.8068 13.9206C12.7323 13.9157 12.633 13.9132 12.5088 13.9132C12.3895 13.9132 12.2355 13.9132 12.0468 13.9132H11.9648C11.9598 14.0324 11.9549 14.1914 11.9499 14.3901C11.9499 14.5888 11.9499 14.8297 11.9499 15.1129V16.3349C11.9499 16.5138 11.9499 16.6603 11.9499 16.7746C11.9499 16.8839 11.9499 16.9758 11.9499 17.0503C11.9549 17.1248 11.9574 17.1894 11.9574 17.244C11.9623 17.2937 11.9673 17.3484 11.9723 17.408C11.9822 17.552 12.0095 17.6514 12.0542 17.706C12.0989 17.7607 12.1412 17.8029 12.1809 17.8327C12.2008 17.8526 12.2281 17.8675 12.2629 17.8774C12.3026 17.8874 12.3448 17.8948 12.3895 17.8998C12.4343 17.9047 12.479 17.9072 12.5237 17.9072C12.5733 17.9072 12.6181 17.9072 12.6578 17.9072L12.6951 17.937L12.7174 18.2202L12.7025 18.25Z" fill="#1D67B2"/>
<path d="M24.435 18.25C24.4002 18.25 24.3455 18.2475 24.271 18.2425C24.1965 18.2376 24.117 18.2326 24.0326 18.2276C23.9481 18.2227 23.8686 18.2177 23.7941 18.2127C23.7196 18.2078 23.665 18.2053 23.6302 18.2053H22.9074C22.8726 18.2053 22.818 18.2078 22.7435 18.2127C22.6689 18.2177 22.5895 18.2227 22.505 18.2276C22.4255 18.2326 22.3485 18.2376 22.274 18.2425C22.1995 18.2475 22.1448 18.25 22.1101 18.25L22.0952 18.2202L22.1175 17.937L22.1548 17.9072C22.2293 17.9072 22.3162 17.9047 22.4156 17.8998C22.5199 17.8948 22.5944 17.8725 22.6391 17.8327C22.6789 17.7979 22.7186 17.7532 22.7584 17.6986C22.7981 17.6439 22.8254 17.5471 22.8403 17.408C22.8453 17.3732 22.8478 17.3335 22.8478 17.2887C22.8527 17.2391 22.8552 17.1795 22.8552 17.1099C22.8602 17.0404 22.8627 16.9559 22.8627 16.8566C22.8627 16.7572 22.8627 16.633 22.8627 16.484V15.1203C22.8627 14.8471 22.8602 14.6037 22.8552 14.3901C22.8503 14.1765 22.8453 14.0175 22.8403 13.9132H22.7584C22.5696 13.9132 22.4131 13.9157 22.2889 13.9206C22.1647 13.9206 22.0654 13.9256 21.9908 13.9355C21.9163 13.9405 21.8592 13.948 21.8195 13.9579C21.7847 13.9678 21.7598 13.9803 21.7449 13.9952C21.6903 14.02 21.6456 14.0597 21.6108 14.1144C21.576 14.169 21.5537 14.2336 21.5438 14.3081L21.5139 14.3379H21.1935L21.2457 13.3394L21.2755 13.2724L21.3202 13.25C21.3599 13.2649 21.4469 13.2798 21.581 13.2947C21.7151 13.3046 21.8617 13.3121 22.0207 13.3171C22.1796 13.322 22.3311 13.327 22.4752 13.332C22.6242 13.332 22.731 13.332 22.7956 13.332H23.7345C23.7991 13.332 23.9034 13.332 24.0475 13.332C24.1965 13.327 24.3505 13.322 24.5095 13.3171C24.6684 13.3121 24.815 13.3046 24.9491 13.2947C25.0832 13.2798 25.1702 13.2649 25.2099 13.25L25.2546 13.2724L25.2844 13.3394L25.344 14.3379H25.0162L24.9864 14.3081C24.9764 14.2336 24.9541 14.169 24.9193 14.1144C24.8845 14.0597 24.8398 14.02 24.7852 13.9952C24.7703 13.9753 24.743 13.9604 24.7032 13.9504C24.6684 13.9355 24.6138 13.9256 24.5393 13.9206C24.4648 13.9157 24.3654 13.9132 24.2412 13.9132C24.122 13.9132 23.968 13.9132 23.7792 13.9132H23.6973C23.6923 14.0324 23.6873 14.1914 23.6824 14.3901C23.6824 14.5888 23.6824 14.8297 23.6824 15.1129V16.3349C23.6824 16.5138 23.6824 16.6603 23.6824 16.7746C23.6824 16.8839 23.6824 16.9758 23.6824 17.0503C23.6873 17.1248 23.6898 17.1894 23.6898 17.244C23.6948 17.2937 23.6997 17.3484 23.7047 17.408C23.7146 17.552 23.742 17.6514 23.7867 17.706C23.8314 17.7607 23.8736 17.8029 23.9133 17.8327C23.9332 17.8526 23.9605 17.8675 23.9953 17.8774C24.0351 17.8874 24.0773 17.8948 24.122 17.8998C24.1667 17.9047 24.2114 17.9072 24.2561 17.9072C24.3058 17.9072 24.3505 17.9072 24.3902 17.9072L24.4275 17.937L24.4499 18.2202L24.435 18.25Z" fill="#1D67B2"/>
<path d="M18 15.4235L18.0134 15.3967C18.1684 15.3192 18.3145 15.2402 18.4516 15.1597C18.5887 15.0793 18.7243 14.9749 18.8584 14.8468H18.8897L19.0328 14.887C19.0298 14.9108 19.0268 14.9392 19.0238 14.972C19.0238 15.0018 19.0224 15.0331 19.0194 15.0658C19.0194 15.0986 19.0179 15.1299 19.0149 15.1597C19.0149 15.1895 19.0149 15.2134 19.0149 15.2313C19.0119 15.279 19.0089 15.3237 19.006 15.3654C19.006 15.4071 19.0045 15.4563 19.0015 15.5129C19.0015 15.5696 19.0015 15.6381 19.0015 15.7186C19.0015 15.7991 19.0015 15.9019 19.0015 16.0271V16.5681C19.0015 16.6933 19.0015 16.7961 19.0015 16.8766C19.0015 16.9541 19.0015 17.0196 19.0015 17.0733C19.0045 17.1269 19.006 17.1746 19.006 17.2164C19.0089 17.2581 19.0134 17.3043 19.0194 17.355C19.0253 17.4176 19.0387 17.4652 19.0596 17.498C19.0805 17.5278 19.1028 17.5532 19.1267 17.574C19.1535 17.5949 19.1952 17.6113 19.2519 17.6232C19.3085 17.6351 19.3592 17.6411 19.4039 17.6411L19.4262 17.6635L19.4352 17.811L19.4262 17.8289C19.4054 17.8289 19.3741 17.8274 19.3323 17.8244C19.2906 17.8214 19.2459 17.8184 19.1982 17.8155C19.1505 17.8155 19.1058 17.814 19.0641 17.811C19.0224 17.811 18.9911 17.811 18.9702 17.811H18.5365C18.5156 17.811 18.4844 17.811 18.4426 17.811C18.4009 17.814 18.3562 17.8155 18.3085 17.8155C18.2608 17.8184 18.2161 17.8214 18.1744 17.8244C18.1326 17.8274 18.1013 17.8289 18.0805 17.8289L18.0715 17.811L18.0805 17.659L18.0939 17.6411C18.1416 17.6411 18.1952 17.6366 18.2548 17.6277C18.3174 17.6158 18.3607 17.5979 18.3845 17.574C18.4083 17.5532 18.4307 17.5263 18.4516 17.4936C18.4724 17.4608 18.4858 17.4146 18.4918 17.355C18.4948 17.3162 18.4978 17.279 18.5007 17.2432C18.5037 17.2044 18.5052 17.1612 18.5052 17.1135C18.5082 17.0629 18.5097 17.0032 18.5097 16.9347C18.5097 16.8661 18.5097 16.7797 18.5097 16.6754V16.036C18.5097 15.9526 18.5097 15.884 18.5097 15.8304C18.5097 15.7767 18.5082 15.732 18.5052 15.6962C18.5052 15.6605 18.5037 15.6292 18.5007 15.6024C18.4978 15.5755 18.4948 15.5457 18.4918 15.5129L18.0134 15.6336L18 15.6158V15.4235Z" fill="#1D67B2"/>
<path d="M20.194 17.574C20.194 17.5383 20.2014 17.5025 20.2163 17.4667C20.2312 17.431 20.2521 17.3997 20.2789 17.3728C20.3057 17.343 20.3356 17.3207 20.3683 17.3058C20.4041 17.2879 20.4414 17.279 20.4801 17.279C20.5546 17.279 20.6217 17.3103 20.6813 17.3728C20.7439 17.4325 20.7752 17.4995 20.7752 17.574C20.7752 17.6128 20.7663 17.65 20.7484 17.6858C20.7335 17.7186 20.7111 17.7484 20.6813 17.7752C20.6545 17.8021 20.6232 17.8229 20.5874 17.8378C20.5516 17.8527 20.5159 17.8602 20.4801 17.8602C20.4026 17.8602 20.3356 17.8319 20.2789 17.7752C20.2223 17.7186 20.194 17.6515 20.194 17.574Z" fill="#1D67B2"/>
</svg>
