<svg width="20" height="20" viewBox="0 0 20 20" fill="none" xmlns="http://www.w3.org/2000/svg">
    <g id="Tabler/notebook/">
        <path id="Vector"
              d="M7.49935 3.33325V18.3333M10.8327 6.66659H12.4993M10.8327 9.99992H12.4993M4.99935 3.33325H14.166C14.608 3.33325 15.032 3.50885 15.3445 3.82141C15.6571 4.13397 15.8327 4.55789 15.8327 4.99992V14.9999C15.8327 15.4419 15.6571 15.8659 15.3445 16.1784C15.032 16.491 14.608 16.6666 14.166 16.6666H4.99935C4.77834 16.6666 4.56637 16.5788 4.41009 16.4225C4.25381 16.2662 4.16602 16.0543 4.16602 15.8333V4.16659C4.16602 3.94557 4.25381 3.73361 4.41009 3.57733C4.56637 3.42105 4.77834 3.33325 4.99935 3.33325Z"
              stroke="#3B3C40" stroke-linecap="round" stroke-linejoin="round"/>
    </g>
</svg>
