<svg width="32" height="32" viewBox="0 0 32 32" fill="none" xmlns="http://www.w3.org/2000/svg">
<path d="M0 4C0 1.79086 1.79086 0 4 0H28C30.2091 0 32 1.79086 32 4V28C32 30.2091 30.2091 32 28 32H4C1.79086 32 0 30.2091 0 28V4Z" fill="white"/>
<path d="M5 25.5C5 24.6716 5.67157 24 6.5 24H25.5C26.3284 24 27 24.6716 27 25.5C27 26.3284 26.3284 27 25.5 27H6.5C5.67157 27 5 26.3284 5 25.5Z" fill="#D2E2F3"/>
<path d="M5 20.5C5 19.6716 5.67157 19 6.5 19H25.5C26.3284 19 27 19.6716 27 20.5C27 21.3284 26.3284 22 25.5 22H6.5C5.67157 22 5 21.3284 5 20.5Z" fill="#D2E2F3"/>
<path d="M22.4439 17C22.3604 17 22.2293 16.994 22.0505 16.9821C21.8716 16.9702 21.6809 16.9583 21.4782 16.9463C21.2755 16.9344 21.0847 16.9225 20.9059 16.9106C20.7271 16.8987 20.5959 16.8927 20.5125 16.8927H18.7777C18.6943 16.8927 18.5631 16.8987 18.3843 16.9106C18.2055 16.9225 18.0147 16.9344 17.812 16.9463C17.6212 16.9583 17.4365 16.9702 17.2576 16.9821C17.0788 16.994 16.9476 17 16.8642 17L16.8284 16.9285L16.8821 16.2489L16.9715 16.1773C17.1503 16.1773 17.359 16.1714 17.5974 16.1595C17.8478 16.1475 18.0266 16.0939 18.1339 15.9985C18.2293 15.9151 18.3247 15.8077 18.4201 15.6766C18.5154 15.5455 18.581 15.313 18.6168 14.9791C18.6287 14.8957 18.6347 14.8003 18.6347 14.693C18.6466 14.5738 18.6525 14.4307 18.6525 14.2638C18.6645 14.0969 18.6704 13.8942 18.6704 13.6557C18.6704 13.4173 18.6704 13.1192 18.6704 12.7615V9.48882C18.6704 8.83309 18.6645 8.24888 18.6525 7.73621C18.6406 7.22355 18.6287 6.84203 18.6168 6.59165H18.4201C17.967 6.59165 17.5914 6.59762 17.2934 6.60954C16.9953 6.60954 16.7569 6.62146 16.578 6.64531C16.3992 6.65723 16.2621 6.67511 16.1667 6.69896C16.0832 6.7228 16.0236 6.75261 15.9879 6.78838C15.8567 6.84799 15.7494 6.94337 15.666 7.07452C15.5825 7.20566 15.5288 7.36066 15.505 7.53949L15.4335 7.61103H14.6645L14.7897 5.2146L14.8612 5.05365L14.9685 5C15.0639 5.03577 15.2725 5.07153 15.5944 5.1073C15.9163 5.13115 16.268 5.14903 16.6496 5.16095C17.0311 5.17288 17.3947 5.1848 17.7405 5.19672C18.0981 5.19672 18.3545 5.19672 18.5095 5.19672H20.7628C20.9178 5.19672 21.1682 5.19672 21.5139 5.19672C21.8716 5.1848 22.2412 5.17288 22.6227 5.16095C23.0043 5.14903 23.356 5.13115 23.6779 5.1073C23.9998 5.07153 24.2084 5.03577 24.3038 5L24.4111 5.05365L24.4826 5.2146L24.6257 7.61103H23.8388L23.7673 7.53949C23.7435 7.36066 23.6898 7.20566 23.6063 7.07452C23.5229 6.94337 23.4156 6.84799 23.2844 6.78838C23.2487 6.74069 23.1831 6.70492 23.0877 6.68107C23.0043 6.64531 22.8731 6.62146 22.6943 6.60954C22.5154 6.59762 22.277 6.59165 21.9789 6.59165C21.6928 6.59165 21.3232 6.59165 20.8701 6.59165H20.6734C20.6615 6.87779 20.6496 7.25931 20.6376 7.73621C20.6376 8.21311 20.6376 8.79136 20.6376 9.47094V12.4039C20.6376 12.8331 20.6376 13.1848 20.6376 13.459C20.6376 13.7213 20.6376 13.9419 20.6376 14.1207C20.6496 14.2996 20.6555 14.4545 20.6555 14.5857C20.6674 14.7049 20.6794 14.8361 20.6913 14.9791C20.7151 15.3249 20.7807 15.5633 20.888 15.6945C20.9953 15.8256 21.0967 15.927 21.192 15.9985C21.2397 16.0462 21.3053 16.082 21.3888 16.1058C21.4841 16.1297 21.5855 16.1475 21.6928 16.1595C21.8001 16.1714 21.9074 16.1773 22.0147 16.1773C22.1339 16.1773 22.2412 16.1773 22.3366 16.1773L22.426 16.2489L22.4797 16.9285L22.4439 17Z" fill="#1D67B2"/>
<path d="M7 10.2164L7.03219 10.1521C7.40417 9.96606 7.75469 9.7765 8.08376 9.58335C8.41282 9.39021 8.7383 9.13983 9.06021 8.83223H9.13532L9.47869 8.92881C9.47154 8.98603 9.46438 9.05399 9.45723 9.13268C9.45723 9.20422 9.45365 9.27933 9.4465 9.35802C9.4465 9.4367 9.44292 9.51182 9.43577 9.58335C9.43577 9.65489 9.43577 9.71211 9.43577 9.75504C9.42861 9.86949 9.42146 9.97679 9.41431 10.0769C9.41431 10.1771 9.41073 10.2951 9.40358 10.431C9.40358 10.567 9.40358 10.7315 9.40358 10.9246C9.40358 11.1178 9.40358 11.3646 9.40358 11.665V12.9634C9.40358 13.2638 9.40358 13.5106 9.40358 13.7038C9.40358 13.8898 9.40358 14.0471 9.40358 14.1759C9.41073 14.3047 9.41431 14.4191 9.41431 14.5193C9.42146 14.6194 9.43219 14.7303 9.4465 14.8519C9.4608 15.0021 9.493 15.1166 9.54307 15.1953C9.59314 15.2668 9.6468 15.3276 9.70402 15.3777C9.76841 15.4278 9.86855 15.4671 10.0045 15.4957C10.1404 15.5243 10.262 15.5386 10.3693 15.5386L10.423 15.5923L10.4444 15.9464L10.423 15.9893C10.3729 15.9893 10.2978 15.9857 10.1976 15.9786C10.0975 15.9714 9.99016 15.9643 9.87571 15.9571C9.76125 15.9571 9.65395 15.9535 9.5538 15.9464C9.45365 15.9464 9.37854 15.9464 9.32847 15.9464H8.28763C8.23756 15.9464 8.16244 15.9464 8.0623 15.9464C7.96215 15.9535 7.85484 15.9571 7.74039 15.9571C7.62593 15.9643 7.51863 15.9714 7.41848 15.9786C7.31833 15.9857 7.24322 15.9893 7.19314 15.9893L7.17168 15.9464L7.19314 15.5816L7.22534 15.5386C7.33979 15.5386 7.46855 15.5279 7.61162 15.5065C7.76185 15.4778 7.86557 15.4349 7.9228 15.3777C7.98003 15.3276 8.03368 15.2632 8.08376 15.1845C8.13383 15.1059 8.16602 14.995 8.18033 14.8519C8.18748 14.7589 8.19464 14.6695 8.20179 14.5837C8.20894 14.4907 8.21252 14.3869 8.21252 14.2725C8.21967 14.1509 8.22325 14.0078 8.22325 13.8433C8.22325 13.6787 8.22325 13.4713 8.22325 13.2209V11.6865C8.22325 11.4862 8.22325 11.3217 8.22325 11.1929C8.22325 11.0641 8.21967 10.9568 8.21252 10.871C8.21252 10.7851 8.20894 10.71 8.20179 10.6456C8.19464 10.5813 8.18748 10.5097 8.18033 10.431L7.03219 10.7208L7 10.6778V10.2164Z" fill="#1D67B2"/>
<path d="M12.2655 15.3777C12.2655 15.2918 12.2834 15.206 12.3192 15.1202C12.355 15.0343 12.405 14.9592 12.4694 14.8948C12.5338 14.8233 12.6053 14.7696 12.684 14.7339C12.7699 14.691 12.8593 14.6695 12.9523 14.6695C13.1311 14.6695 13.2921 14.7446 13.4351 14.8948C13.5854 15.0379 13.6605 15.1989 13.6605 15.3777C13.6605 15.4707 13.639 15.5601 13.5961 15.6459C13.5603 15.7246 13.5067 15.7962 13.4351 15.8605C13.3708 15.9249 13.2956 15.975 13.2098 16.0108C13.124 16.0465 13.0381 16.0644 12.9523 16.0644C12.7663 16.0644 12.6053 15.9965 12.4694 15.8605C12.3335 15.7246 12.2655 15.5637 12.2655 15.3777Z" fill="#1D67B2"/>
</svg>
