<svg width="40" height="40" viewBox="0 0 40 40" fill="none" xmlns="http://www.w3.org/2000/svg">
<path d="M0 6C0 2.68629 2.68629 0 6 0H34C37.3137 0 40 2.68629 40 6V34C40 37.3137 37.3137 40 34 40H6C2.68629 40 0 37.3137 0 34V6Z" fill="#FCFCFD"/>
<rect x="18" y="13" width="16" height="2" rx="1" fill="#D8DADF"/>
<rect x="18" y="19" width="16" height="2" rx="1" fill="#D8DADF"/>
<rect x="18" y="25" width="16" height="2" rx="1" fill="#D8DADF"/>
<path d="M10.1506 15.2727V24H8.82955V16.5938H8.77841L6.69034 17.9574V16.696L8.8679 15.2727H10.1506ZM12.864 24.081C12.631 24.081 12.4308 23.9986 12.2631 23.8338C12.0955 23.6662 12.0117 23.4645 12.0117 23.2287C12.0117 22.9957 12.0955 22.7969 12.2631 22.6321C12.4308 22.4645 12.631 22.3807 12.864 22.3807C13.0969 22.3807 13.2972 22.4645 13.4648 22.6321C13.6325 22.7969 13.7163 22.9957 13.7163 23.2287C13.7163 23.3849 13.6765 23.5284 13.5969 23.6591C13.5202 23.7869 13.418 23.8892 13.2901 23.9659C13.1623 24.0426 13.0202 24.081 12.864 24.081Z" fill="#3B3C40"/>
</svg>
