<svg width="20" height="20" viewBox="0 0 20 20" fill="none" xmlns="http://www.w3.org/2000/svg">
<path d="M12.4993 2.5V5.83333C12.4993 6.05435 12.5871 6.26631 12.7434 6.42259C12.8997 6.57887 13.1117 6.66667 13.3327 6.66667H16.666M12.4993 2.5H9.16602C8.72399 2.5 8.30007 2.67559 7.9875 2.98816C7.67494 3.30072 7.49935 3.72464 7.49935 4.16667V12.5C7.49935 12.942 7.67494 13.366 7.9875 13.6785C8.30007 13.9911 8.72399 14.1667 9.16602 14.1667H14.9993C15.4414 14.1667 15.8653 13.9911 16.1779 13.6785C16.4904 13.366 16.666 12.942 16.666 12.5V6.66667M12.4993 2.5L16.666 6.66667M13.3327 14.1667V15.8333C13.3327 16.2754 13.1571 16.6993 12.8445 17.0118C12.532 17.3244 12.108 17.5 11.666 17.5H5.83268C5.39065 17.5 4.96673 17.3244 4.65417 17.0118C4.34161 16.6993 4.16602 16.2754 4.16602 15.8333V7.5C4.16602 7.05797 4.34161 6.63405 4.65417 6.32149C4.96673 6.00893 5.39065 5.83333 5.83268 5.83333H7.49935" stroke="#3B3C40" stroke-linecap="round" stroke-linejoin="round"/>
</svg>
