<svg width="32" height="32" viewBox="0 0 32 32" fill="none" xmlns="http://www.w3.org/2000/svg">
    <path d="M0 4C0 1.79086 1.79086 0 4 0H28C30.2091 0 32 1.79086 32 4V28C32 30.2091 30.2091 32 28 32H4C1.79086 32 0 30.2091 0 28V4Z"
          class="fill-gray-0"/>
    <path d="M16 9.5C16 8.67157 16.6716 8 17.5 8H25.5C26.3284 8 27 8.67157 27 9.5C27 10.3284 26.3284 11 25.5 11H17.5C16.6716 11 16 10.3284 16 9.5Z"
          class="fill-ocean-1"/>
    <path d="M11.3654 11C11.3225 11 11.252 10.997 11.1538 10.991C11.0557 10.985 10.9545 10.979 10.8503 10.973C10.746 10.967 10.6448 10.961 10.5467 10.955C10.4486 10.9489 10.3781 10.9459 10.3352 10.9459H9.79245C9.74952 10.9459 9.679 10.9489 9.58088 10.955C9.48276 10.961 9.38158 10.967 9.27733 10.973C9.17308 10.979 9.0719 10.985 8.97378 10.991C8.87566 10.997 8.80514 11 8.76221 11L8.74381 10.964L8.77141 10.6216L8.8082 10.5856C8.90632 10.5856 8.99831 10.5826 9.08416 10.5766C9.17001 10.5646 9.2436 10.5375 9.30493 10.4955C9.36012 10.4535 9.40304 10.3994 9.43371 10.3333C9.46437 10.2673 9.49503 10.1502 9.52569 9.98198C9.53182 9.93994 9.53489 9.89189 9.53489 9.83784C9.54102 9.77778 9.54409 9.70571 9.54409 9.62162C9.55022 9.53754 9.55329 9.43544 9.55329 9.31532C9.55329 9.1952 9.55329 9.04505 9.55329 8.86487V8.14414H6.83051V8.68468C6.83051 8.9009 6.83051 9.07808 6.83051 9.21622C6.83051 9.34835 6.83051 9.45946 6.83051 9.54955C6.83665 9.63964 6.83971 9.71772 6.83971 9.78378C6.84584 9.84384 6.85198 9.90991 6.85811 9.98198C6.87037 10.1502 6.89797 10.2673 6.9409 10.3333C6.98382 10.3994 7.02982 10.4535 7.07887 10.4955C7.13407 10.5375 7.20459 10.5646 7.29044 10.5766C7.38243 10.5826 7.47748 10.5856 7.5756 10.5856L7.61239 10.6216L7.63999 10.964L7.62159 11C7.57866 11 7.50814 10.997 7.41002 10.991C7.3119 10.985 7.21072 10.979 7.10647 10.973C7.00222 10.967 6.90104 10.961 6.80292 10.955C6.7048 10.9489 6.63428 10.9459 6.59135 10.9459H6.04864C6.00571 10.9459 5.93519 10.9489 5.83707 10.955C5.73895 10.961 5.63777 10.967 5.53352 10.973C5.42927 10.979 5.32808 10.985 5.22996 10.991C5.13185 10.997 5.06132 11 5.0184 11L5 10.964L5.0276 10.6216L5.07359 10.5856C5.17171 10.5856 5.26369 10.5826 5.34955 10.5766C5.4354 10.5646 5.50592 10.5375 5.56111 10.4955C5.61017 10.4535 5.65616 10.3994 5.69909 10.3333C5.74815 10.2673 5.77881 10.1502 5.79108 9.98198C5.79108 9.93994 5.79108 9.89189 5.79108 9.83784C5.79721 9.77778 5.80027 9.70571 5.80027 9.62162C5.80641 9.53754 5.80947 9.43544 5.80947 9.31532C5.80947 9.1952 5.80947 9.04505 5.80947 8.86487V7.3964C5.80947 7.18619 5.80947 7.00901 5.80947 6.86486C5.80947 6.72072 5.80641 6.5976 5.80027 6.4955C5.80027 6.39339 5.79721 6.30631 5.79108 6.23423C5.79108 6.16216 5.78801 6.09009 5.78188 6.01802C5.76961 5.86186 5.74202 5.74775 5.69909 5.67568C5.65616 5.6036 5.61017 5.54655 5.56111 5.5045C5.50592 5.46246 5.4354 5.43844 5.34955 5.43243C5.26369 5.42042 5.17171 5.41441 5.07359 5.41441L5.0276 5.37838L5 5.03604L5.0184 5C5.06132 5 5.13185 5.003 5.22996 5.00901C5.32808 5.01501 5.42927 5.02102 5.53352 5.02703C5.63777 5.03303 5.73895 5.03904 5.83707 5.04504C5.93519 5.05105 6.00571 5.05405 6.04864 5.05405H6.59135C6.63428 5.05405 6.7048 5.05105 6.80292 5.04504C6.90104 5.03904 7.00222 5.03303 7.10647 5.02703C7.21072 5.02102 7.3119 5.01501 7.41002 5.00901C7.50814 5.003 7.57866 5 7.62159 5L7.63999 5.03604L7.61239 5.37838L7.5756 5.41441C7.48974 5.41441 7.39776 5.42042 7.29964 5.43243C7.20765 5.43844 7.13407 5.46246 7.07887 5.5045C7.02982 5.54655 6.98076 5.6006 6.9317 5.66667C6.88877 5.73273 6.86424 5.84985 6.85811 6.01802C6.85198 6.1021 6.84584 6.18018 6.83971 6.25225C6.83971 6.32432 6.83665 6.40841 6.83051 6.5045C6.83051 6.6006 6.83051 6.71772 6.83051 6.85586C6.83051 6.99399 6.83051 7.17117 6.83051 7.38739V7.47748H9.55329V7.3964C9.55329 7.18619 9.55329 7.00901 9.55329 6.86486C9.55329 6.72072 9.55022 6.5976 9.54409 6.4955C9.54409 6.39339 9.54102 6.30631 9.53489 6.23423C9.53489 6.16216 9.53182 6.09009 9.52569 6.01802C9.51343 5.84985 9.48583 5.73273 9.4429 5.66667C9.39998 5.6006 9.35398 5.54655 9.30493 5.5045C9.24973 5.46246 9.17615 5.43844 9.08416 5.43243C8.99831 5.42042 8.90632 5.41441 8.8082 5.41441L8.77141 5.37838L8.74381 5.03604L8.76221 5C8.80514 5 8.87566 5.003 8.97378 5.00901C9.0719 5.01501 9.17308 5.02102 9.27733 5.02703C9.38158 5.03303 9.48276 5.03904 9.58088 5.04504C9.679 5.05105 9.74952 5.05405 9.79245 5.05405H10.3352C10.3781 5.05405 10.4486 5.05105 10.5467 5.04504C10.6448 5.03904 10.746 5.03303 10.8503 5.02703C10.9545 5.02102 11.0557 5.01501 11.1538 5.00901C11.252 5.003 11.3225 5 11.3654 5L11.3838 5.03604L11.3562 5.37838L11.3102 5.41441C11.2121 5.41441 11.117 5.42042 11.0251 5.43243C10.9392 5.43844 10.8717 5.46246 10.8227 5.5045C10.7736 5.54655 10.7276 5.6006 10.6847 5.66667C10.6479 5.73273 10.6173 5.84985 10.5927 6.01802C10.5866 6.1021 10.5805 6.18018 10.5743 6.25225C10.5743 6.32432 10.5743 6.40841 10.5743 6.5045C10.5743 6.6006 10.5743 6.71772 10.5743 6.85586C10.5743 6.99399 10.5743 7.17117 10.5743 7.38739V8.68468C10.5743 8.9009 10.5743 9.07808 10.5743 9.21622C10.5743 9.34835 10.5743 9.45946 10.5743 9.54955C10.5743 9.63964 10.5743 9.71772 10.5743 9.78378C10.5805 9.84384 10.5866 9.90991 10.5927 9.98198C10.605 10.1502 10.6326 10.2673 10.6755 10.3333C10.7246 10.3994 10.7736 10.4535 10.8227 10.4955C10.8779 10.5375 10.9484 10.5646 11.0343 10.5766C11.1201 10.5826 11.2121 10.5856 11.3102 10.5856L11.3562 10.6216L11.3838 10.964L11.3654 11Z"
          class="fill-ocean-5"/>
    <path d="M12.1879 8.24324L12.1971 8.20721C12.4117 8.12913 12.611 8.05105 12.795 7.97297C12.9851 7.88889 13.1691 7.78378 13.3469 7.65766H13.3837L13.5125 7.7027C13.4941 7.8949 13.4818 8.0991 13.4757 8.31532C13.4757 8.52553 13.4757 8.77778 13.4757 9.07207V9.56757C13.4757 9.69369 13.4757 9.7988 13.4757 9.88288C13.4757 9.96096 13.4757 10.03 13.4757 10.0901C13.4757 10.1441 13.4757 10.1922 13.4757 10.2342C13.4818 10.2763 13.4879 10.3243 13.4941 10.3784C13.5002 10.4565 13.5155 10.5165 13.5401 10.5586C13.5707 10.5946 13.6014 10.6216 13.6321 10.6396C13.6627 10.6637 13.7118 10.6847 13.7792 10.7027C13.8528 10.7147 13.9172 10.7207 13.9724 10.7207L14 10.973C13.9693 10.973 13.9295 10.97 13.8804 10.964C13.8314 10.964 13.7762 10.961 13.7148 10.955C13.6597 10.955 13.6045 10.955 13.5493 10.955C13.5002 10.955 13.4634 10.955 13.4389 10.955H12.8502C12.8195 10.955 12.7766 10.955 12.7214 10.955C12.6723 10.955 12.6171 10.955 12.5558 10.955C12.5006 10.961 12.4454 10.964 12.3903 10.964C12.3412 10.97 12.3044 10.973 12.2799 10.973L12.3075 10.7207C12.3627 10.7207 12.427 10.7147 12.5006 10.7027C12.5742 10.6907 12.6294 10.6697 12.6662 10.6396C12.6969 10.6156 12.7214 10.5856 12.7398 10.5495C12.7643 10.5075 12.7827 10.4505 12.795 10.3784C12.8011 10.3363 12.8042 10.2973 12.8042 10.2613C12.8103 10.2252 12.8134 10.1832 12.8134 10.1351C12.8134 10.0811 12.8134 10.021 12.8134 9.95496C12.8134 9.88288 12.8134 9.7958 12.8134 9.69369V9.09009C12.8134 8.98799 12.8134 8.90691 12.8134 8.84685C12.8134 8.78078 12.8134 8.72673 12.8134 8.68468C12.8134 8.64264 12.8103 8.60661 12.8042 8.57658C12.8042 8.54054 12.8011 8.5015 12.795 8.45946L12.1879 8.61261V8.24324Z"
          class="fill-ocean-5"/>
    <path d="M15 16.5C15 15.6716 15.6716 15 16.5 15H25.5C26.3284 15 27 15.6716 27 16.5C27 17.3284 26.3284 18 25.5 18H16.5C15.6716 18 15 17.3284 15 16.5Z"
          class="fill-ocean-1"/>
    <path d="M10.2955 19C10.2598 19 10.2011 18.9975 10.1195 18.9925C10.0379 18.9875 9.9537 18.9825 9.86697 18.9775C9.78024 18.9725 9.69607 18.9675 9.61444 18.9625C9.53281 18.9575 9.47414 18.955 9.43843 18.955H8.98694C8.95123 18.955 8.89256 18.9575 8.81093 18.9625C8.7293 18.9675 8.64513 18.9725 8.5584 18.9775C8.47167 18.9825 8.38749 18.9875 8.30587 18.9925C8.22424 18.9975 8.16557 19 8.12986 19L8.11456 18.97L8.13751 18.6847L8.16812 18.6547C8.24975 18.6547 8.32627 18.6522 8.3977 18.6471C8.46912 18.6371 8.53034 18.6146 8.58136 18.5796C8.62727 18.5445 8.66298 18.4995 8.68849 18.4444C8.714 18.3894 8.73951 18.2918 8.76502 18.1517C8.77012 18.1166 8.77267 18.0766 8.77267 18.0315C8.77777 17.9815 8.78032 17.9214 8.78032 17.8514C8.78542 17.7813 8.78797 17.6962 8.78797 17.5961C8.78797 17.496 8.78797 17.3709 8.78797 17.2207V16.6201H6.52284V17.0706C6.52284 17.2508 6.52284 17.3984 6.52284 17.5135C6.52284 17.6236 6.52284 17.7162 6.52284 17.7913C6.52794 17.8664 6.53049 17.9314 6.53049 17.9865C6.5356 18.0365 6.5407 18.0916 6.5458 18.1517C6.556 18.2918 6.57896 18.3894 6.61467 18.4444C6.65038 18.4995 6.68865 18.5445 6.72946 18.5796C6.77537 18.6146 6.83404 18.6371 6.90547 18.6471C6.98199 18.6522 7.06107 18.6547 7.14269 18.6547L7.1733 18.6847L7.19626 18.97L7.18095 19C7.14524 19 7.08657 18.9975 7.00495 18.9925C6.92332 18.9875 6.83914 18.9825 6.75242 18.9775C6.66569 18.9725 6.58151 18.9675 6.49988 18.9625C6.41826 18.9575 6.35959 18.955 6.32388 18.955H5.87238C5.83667 18.955 5.778 18.9575 5.69637 18.9625C5.61475 18.9675 5.53057 18.9725 5.44384 18.9775C5.35712 18.9825 5.27294 18.9875 5.19131 18.9925C5.10969 18.9975 5.05102 19 5.0153 19L5 18.97L5.02296 18.6847L5.06122 18.6547C5.14285 18.6547 5.21937 18.6522 5.29079 18.6471C5.36222 18.6371 5.42089 18.6146 5.4668 18.5796C5.50761 18.5445 5.54588 18.4995 5.58159 18.4444C5.6224 18.3894 5.64791 18.2918 5.65811 18.1517C5.65811 18.1166 5.65811 18.0766 5.65811 18.0315C5.66321 17.9815 5.66576 17.9214 5.66576 17.8514C5.67087 17.7813 5.67342 17.6962 5.67342 17.5961C5.67342 17.496 5.67342 17.3709 5.67342 17.2207V15.997C5.67342 15.8218 5.67342 15.6742 5.67342 15.5541C5.67342 15.4339 5.67087 15.3313 5.66576 15.2462C5.66576 15.1612 5.66321 15.0886 5.65811 15.0285C5.65811 14.9685 5.65556 14.9084 5.65046 14.8483C5.64026 14.7182 5.6173 14.6231 5.58159 14.5631C5.54588 14.503 5.50761 14.4555 5.4668 14.4204C5.42089 14.3854 5.36222 14.3654 5.29079 14.3604C5.21937 14.3504 5.14285 14.3453 5.06122 14.3453L5.02296 14.3153L5 14.03L5.0153 14C5.05102 14 5.10969 14.0025 5.19131 14.0075C5.27294 14.0125 5.35712 14.0175 5.44384 14.0225C5.53057 14.0275 5.61475 14.0325 5.69637 14.0375C5.778 14.0425 5.83667 14.045 5.87238 14.045H6.32388C6.35959 14.045 6.41826 14.0425 6.49988 14.0375C6.58151 14.0325 6.66569 14.0275 6.75242 14.0225C6.83914 14.0175 6.92332 14.0125 7.00495 14.0075C7.08657 14.0025 7.14524 14 7.18095 14L7.19626 14.03L7.1733 14.3153L7.14269 14.3453C7.07127 14.3453 6.99474 14.3504 6.91312 14.3604C6.83659 14.3654 6.77537 14.3854 6.72946 14.4204C6.68865 14.4555 6.64783 14.5005 6.60702 14.5556C6.57131 14.6106 6.5509 14.7082 6.5458 14.8483C6.5407 14.9184 6.5356 14.9835 6.53049 15.0435C6.53049 15.1036 6.52794 15.1737 6.52284 15.2538C6.52284 15.3338 6.52284 15.4314 6.52284 15.5465C6.52284 15.6617 6.52284 15.8093 6.52284 15.9895V16.0646H8.78797V15.997C8.78797 15.8218 8.78797 15.6742 8.78797 15.5541C8.78797 15.4339 8.78542 15.3313 8.78032 15.2462C8.78032 15.1612 8.77777 15.0886 8.77267 15.0285C8.77267 14.9685 8.77012 14.9084 8.76502 14.8483C8.75481 14.7082 8.73185 14.6106 8.69614 14.5556C8.66043 14.5005 8.62217 14.4555 8.58136 14.4204C8.53544 14.3854 8.47422 14.3654 8.3977 14.3604C8.32627 14.3504 8.24975 14.3453 8.16812 14.3453L8.13751 14.3153L8.11456 14.03L8.12986 14C8.16557 14 8.22424 14.0025 8.30587 14.0075C8.38749 14.0125 8.47167 14.0175 8.5584 14.0225C8.64513 14.0275 8.7293 14.0325 8.81093 14.0375C8.89256 14.0425 8.95123 14.045 8.98694 14.045H9.43843C9.47414 14.045 9.53281 14.0425 9.61444 14.0375C9.69607 14.0325 9.78024 14.0275 9.86697 14.0225C9.9537 14.0175 10.0379 14.0125 10.1195 14.0075C10.2011 14.0025 10.2598 14 10.2955 14L10.3108 14.03L10.2879 14.3153L10.2496 14.3453C10.168 14.3453 10.0889 14.3504 10.0124 14.3604C9.94095 14.3654 9.88483 14.3854 9.84401 14.4204C9.8032 14.4555 9.76494 14.5005 9.72923 14.5556C9.69862 14.6106 9.67311 14.7082 9.6527 14.8483C9.6476 14.9184 9.6425 14.9835 9.6374 15.0435C9.6374 15.1036 9.6374 15.1737 9.6374 15.2538C9.6374 15.3338 9.6374 15.4314 9.6374 15.5465C9.6374 15.6617 9.6374 15.8093 9.6374 15.9895V17.0706C9.6374 17.2508 9.6374 17.3984 9.6374 17.5135C9.6374 17.6236 9.6374 17.7162 9.6374 17.7913C9.6374 17.8664 9.6374 17.9314 9.6374 17.9865C9.6425 18.0365 9.6476 18.0916 9.6527 18.1517C9.66291 18.2918 9.68586 18.3894 9.72157 18.4444C9.76239 18.4995 9.8032 18.5445 9.84401 18.5796C9.88993 18.6146 9.9486 18.6371 10.02 18.6471C10.0914 18.6522 10.168 18.6547 10.2496 18.6547L10.2879 18.6847L10.3108 18.97L10.2955 19Z"
          class="fill-ocean-5"/>
    <path d="M11.0486 16.7027C11.0894 16.6476 11.1379 16.5926 11.194 16.5375C11.2501 16.4775 11.3165 16.4249 11.393 16.3799C11.4695 16.3348 11.5588 16.2998 11.6608 16.2748C11.7629 16.2447 11.8802 16.2297 12.0128 16.2297C12.3036 16.2297 12.5179 16.2973 12.6556 16.4324C12.7985 16.5676 12.8699 16.7427 12.8699 16.958C12.8699 17.0681 12.8418 17.1782 12.7857 17.2883C12.7296 17.3934 12.6582 17.501 12.5715 17.6111C12.4898 17.7162 12.398 17.8163 12.296 17.9114C12.199 18.0065 12.1072 18.0966 12.0205 18.1817C11.9389 18.2618 11.87 18.3343 11.8139 18.3994C11.7577 18.4595 11.7297 18.507 11.7297 18.542H12.1353C12.2424 18.542 12.3342 18.5395 12.4108 18.5345C12.4873 18.5295 12.5485 18.5145 12.5944 18.4895C12.6454 18.4595 12.6837 18.4169 12.7092 18.3619C12.7398 18.3018 12.7628 18.2192 12.7781 18.1141H13L12.9311 18.9399L12.8929 18.9775C12.8776 18.9775 12.8291 18.975 12.7475 18.97C12.6658 18.97 12.5766 18.9675 12.4796 18.9625C12.3827 18.9625 12.2883 18.96 12.1965 18.955C12.1098 18.955 12.0485 18.955 12.0128 18.955H11.4465C11.3853 18.955 11.3165 18.9575 11.2399 18.9625C11.1634 18.9675 11.0894 18.9725 11.018 18.9775L10.9797 18.8574V18.6922C11.0767 18.5821 11.2017 18.452 11.3547 18.3018C11.5129 18.1517 11.6659 17.9965 11.8139 17.8363C11.9618 17.6762 12.0894 17.521 12.1965 17.3709C12.3036 17.2157 12.3572 17.0806 12.3572 16.9655C12.3572 16.8604 12.3189 16.7753 12.2424 16.7102C12.1659 16.6401 12.0715 16.6051 11.9593 16.6051C11.7654 16.6051 11.6226 16.6527 11.5307 16.7477C11.444 16.8378 11.3955 16.958 11.3853 17.1081H11.0945L11.0486 16.7027Z"
          class="fill-ocean-5"/>
    <path d="M14 24.5C14 23.6716 14.6716 23 15.5 23H25.5C26.3284 23 27 23.6716 27 24.5C27 25.3284 26.3284 26 25.5 26H15.5C14.6716 26 14 25.3284 14 24.5Z"
          class="fill-ocean-1"/>
    <path d="M9.15616 26C9.12813 26 9.08208 25.998 9.01802 25.994C8.95395 25.99 8.88789 25.986 8.81982 25.982C8.75175 25.978 8.68569 25.974 8.62162 25.97C8.55756 25.966 8.51151 25.964 8.48348 25.964H8.12913C8.1011 25.964 8.05506 25.966 7.99099 25.97C7.92693 25.974 7.86086 25.978 7.79279 25.982C7.72472 25.986 7.65866 25.99 7.59459 25.994C7.53053 25.998 7.48448 26 7.45646 26L7.44444 25.976L7.46246 25.7477L7.48649 25.7237C7.55055 25.7237 7.61061 25.7217 7.66667 25.7177C7.72272 25.7097 7.77077 25.6917 7.81081 25.6637C7.84685 25.6356 7.87488 25.5996 7.8949 25.5556C7.91492 25.5115 7.93493 25.4334 7.95495 25.3213C7.95896 25.2933 7.96096 25.2613 7.96096 25.2252C7.96497 25.1852 7.96697 25.1371 7.96697 25.0811C7.97097 25.025 7.97297 24.957 7.97297 24.8769C7.97297 24.7968 7.97297 24.6967 7.97297 24.5766V24.0961H6.1952V24.4565C6.1952 24.6006 6.1952 24.7187 6.1952 24.8108C6.1952 24.8989 6.1952 24.973 6.1952 25.033C6.1992 25.0931 6.2012 25.1451 6.2012 25.1892C6.20521 25.2292 6.20921 25.2733 6.21321 25.3213C6.22122 25.4334 6.23924 25.5115 6.26727 25.5556C6.2953 25.5996 6.32533 25.6356 6.35736 25.6637C6.39339 25.6917 6.43944 25.7097 6.4955 25.7177C6.55556 25.7217 6.61762 25.7237 6.68168 25.7237L6.70571 25.7477L6.72372 25.976L6.71171 26C6.68368 26 6.63764 25.998 6.57357 25.994C6.50951 25.99 6.44344 25.986 6.37538 25.982C6.30731 25.978 6.24124 25.974 6.17718 25.97C6.11311 25.966 6.06707 25.964 6.03904 25.964H5.68468C5.65666 25.964 5.61061 25.966 5.54655 25.97C5.48248 25.974 5.41642 25.978 5.34835 25.982C5.28028 25.986 5.21421 25.99 5.15015 25.994C5.08609 25.998 5.04004 26 5.01201 26L5 25.976L5.01802 25.7477L5.04805 25.7237C5.11211 25.7237 5.17217 25.7217 5.22823 25.7177C5.28428 25.7097 5.33033 25.6917 5.36637 25.6637C5.3984 25.6356 5.42843 25.5996 5.45646 25.5556C5.48849 25.5115 5.50851 25.4334 5.51652 25.3213C5.51652 25.2933 5.51652 25.2613 5.51652 25.2252C5.52052 25.1852 5.52252 25.1371 5.52252 25.0811C5.52653 25.025 5.52853 24.957 5.52853 24.8769C5.52853 24.7968 5.52853 24.6967 5.52853 24.5766V23.5976C5.52853 23.4575 5.52853 23.3393 5.52853 23.2432C5.52853 23.1471 5.52653 23.0651 5.52252 22.997C5.52252 22.9289 5.52052 22.8709 5.51652 22.8228C5.51652 22.7748 5.51451 22.7267 5.51051 22.6787C5.5025 22.5746 5.48448 22.4985 5.45646 22.4505C5.42843 22.4024 5.3984 22.3644 5.36637 22.3363C5.33033 22.3083 5.28428 22.2923 5.22823 22.2883C5.17217 22.2803 5.11211 22.2763 5.04805 22.2763L5.01802 22.2523L5 22.024L5.01201 22C5.04004 22 5.08609 22.002 5.15015 22.006C5.21421 22.01 5.28028 22.014 5.34835 22.018C5.41642 22.022 5.48248 22.026 5.54655 22.03C5.61061 22.034 5.65666 22.036 5.68468 22.036H6.03904C6.06707 22.036 6.11311 22.034 6.17718 22.03C6.24124 22.026 6.30731 22.022 6.37538 22.018C6.44344 22.014 6.50951 22.01 6.57357 22.006C6.63764 22.002 6.68368 22 6.71171 22L6.72372 22.024L6.70571 22.2523L6.68168 22.2763C6.62563 22.2763 6.56557 22.2803 6.5015 22.2883C6.44144 22.2923 6.39339 22.3083 6.35736 22.3363C6.32533 22.3644 6.29329 22.4004 6.26126 22.4444C6.23323 22.4885 6.21722 22.5666 6.21321 22.6787C6.20921 22.7347 6.20521 22.7868 6.2012 22.8348C6.2012 22.8829 6.1992 22.9389 6.1952 23.003C6.1952 23.0671 6.1952 23.1451 6.1952 23.2372C6.1952 23.3293 6.1952 23.4474 6.1952 23.5916V23.6517H7.97297V23.5976C7.97297 23.4575 7.97297 23.3393 7.97297 23.2432C7.97297 23.1471 7.97097 23.0651 7.96697 22.997C7.96697 22.9289 7.96497 22.8709 7.96096 22.8228C7.96096 22.7748 7.95896 22.7267 7.95495 22.6787C7.94695 22.5666 7.92893 22.4885 7.9009 22.4444C7.87287 22.4004 7.84284 22.3644 7.81081 22.3363C7.77477 22.3083 7.72673 22.2923 7.66667 22.2883C7.61061 22.2803 7.55055 22.2763 7.48649 22.2763L7.46246 22.2523L7.44444 22.024L7.45646 22C7.48448 22 7.53053 22.002 7.59459 22.006C7.65866 22.01 7.72472 22.014 7.79279 22.018C7.86086 22.022 7.92693 22.026 7.99099 22.03C8.05506 22.034 8.1011 22.036 8.12913 22.036H8.48348C8.51151 22.036 8.55756 22.034 8.62162 22.03C8.68569 22.026 8.75175 22.022 8.81982 22.018C8.88789 22.014 8.95395 22.01 9.01802 22.006C9.08208 22.002 9.12813 22 9.15616 22L9.16817 22.024L9.15015 22.2523L9.12012 22.2763C9.05606 22.2763 8.99399 22.2803 8.93393 22.2883C8.87788 22.2923 8.83383 22.3083 8.8018 22.3363C8.76977 22.3644 8.73974 22.4004 8.71171 22.4444C8.68769 22.4885 8.66767 22.5666 8.65165 22.6787C8.64765 22.7347 8.64364 22.7868 8.63964 22.8348C8.63964 22.8829 8.63964 22.9389 8.63964 23.003C8.63964 23.0671 8.63964 23.1451 8.63964 23.2372C8.63964 23.3293 8.63964 23.4474 8.63964 23.5916V24.4565C8.63964 24.6006 8.63964 24.7187 8.63964 24.8108C8.63964 24.8989 8.63964 24.973 8.63964 25.033C8.63964 25.0931 8.63964 25.1451 8.63964 25.1892C8.64364 25.2292 8.64765 25.2733 8.65165 25.3213C8.65966 25.4334 8.67768 25.5115 8.70571 25.5556C8.73774 25.5996 8.76977 25.6356 8.8018 25.6637C8.83784 25.6917 8.88388 25.7097 8.93994 25.7177C8.996 25.7217 9.05606 25.7237 9.12012 25.7237L9.15015 25.7477L9.16817 25.976L9.15616 26Z"
          class="fill-ocean-5"/>
    <path d="M9.98147 25.3273C9.99748 25.4474 10.0455 25.5355 10.1256 25.5916C10.2097 25.6436 10.3018 25.6697 10.4019 25.6697C10.518 25.6697 10.6221 25.6356 10.7142 25.5676C10.8063 25.4995 10.8523 25.4074 10.8523 25.2913C10.8523 25.1792 10.8183 25.0851 10.7502 25.009C10.6862 24.9329 10.5881 24.8949 10.4559 24.8949H10.2037L10.2397 24.6486C10.4119 24.6446 10.538 24.6066 10.6181 24.5345C10.7022 24.4585 10.7442 24.3784 10.7442 24.2943C10.7442 24.2142 10.7102 24.1502 10.6421 24.1021C10.5741 24.0501 10.496 24.024 10.4079 24.024C10.3198 24.024 10.2357 24.0501 10.1556 24.1021C10.0796 24.1542 10.0415 24.2242 10.0415 24.3123C10.0415 24.3403 10.0435 24.3604 10.0475 24.3724H9.79528L9.76525 24.1081C9.78927 24.0681 9.8173 24.026 9.84933 23.982C9.88537 23.9379 9.92941 23.8979 9.98147 23.8619C10.0335 23.8258 10.0956 23.7978 10.1677 23.7778C10.2397 23.7538 10.3278 23.7417 10.4319 23.7417C10.54 23.7417 10.6361 23.7578 10.7202 23.7898C10.8083 23.8178 10.8824 23.8579 10.9424 23.9099C11.0025 23.958 11.0465 24.016 11.0746 24.0841C11.1066 24.1481 11.1226 24.2142 11.1226 24.2823C11.1226 24.3704 11.1006 24.4565 11.0565 24.5405C11.0165 24.6206 10.9444 24.6887 10.8403 24.7447C10.9805 24.7768 11.0806 24.8408 11.1406 24.9369C11.2007 25.033 11.2307 25.1391 11.2307 25.2553C11.2307 25.3393 11.2107 25.4234 11.1707 25.5075C11.1346 25.5916 11.0806 25.6677 11.0085 25.7357C10.9364 25.8038 10.8483 25.8599 10.7442 25.9039C10.6441 25.9439 10.53 25.964 10.4019 25.964C10.2337 25.964 10.0936 25.9319 9.98147 25.8679C9.87336 25.7998 9.77926 25.7077 9.69918 25.5916L9.73522 25.3273H9.98147Z"
          class="fill-ocean-5"/>
</svg>
