<svg width="32" height="32" viewBox="0 0 32 32" fill="none" xmlns="http://www.w3.org/2000/svg">
<path d="M0 4C0 1.79086 1.79086 0 4 0H28C30.2091 0 32 1.79086 32 4V28C32 30.2091 30.2091 32 28 32H4C1.79086 32 0 30.2091 0 28V4Z" fill="white"/>
<path d="M5 25.5C5 24.6716 5.67157 24 6.5 24H25.5C26.3284 24 27 24.6716 27 25.5C27 26.3284 26.3284 27 25.5 27H6.5C5.67157 27 5 26.3284 5 25.5Z" fill="#D2E2F3"/>
<path d="M5 20.5C5 19.6716 5.67157 19 6.5 19H25.5C26.3284 19 27 19.6716 27 20.5C27 21.3284 26.3284 22 25.5 22H6.5C5.67157 22 5 21.3284 5 20.5Z" fill="#D2E2F3"/>
<path d="M18.9298 17C18.8448 17 18.7111 16.994 18.5288 16.9821C18.3465 16.9702 18.1521 16.9583 17.9454 16.9463C17.7388 16.9344 17.5444 16.9225 17.3621 16.9106C17.1798 16.8987 17.0461 16.8927 16.9611 16.8927H15.1928C15.1077 16.8927 14.974 16.8987 14.7917 16.9106C14.6094 16.9225 14.415 16.9344 14.2084 16.9463C14.0139 16.9583 13.8256 16.9702 13.6433 16.9821C13.461 16.994 13.3273 17 13.2422 17L13.2058 16.9285L13.2605 16.2489L13.3516 16.1773C13.5339 16.1773 13.7466 16.1714 13.9896 16.1595C14.2449 16.1475 14.4272 16.0939 14.5365 15.9985C14.6338 15.9151 14.731 15.8077 14.8282 15.6766C14.9254 15.5455 14.9923 15.313 15.0287 14.9791C15.0409 14.8957 15.047 14.8003 15.047 14.693C15.0591 14.5738 15.0652 14.4307 15.0652 14.2638C15.0773 14.0969 15.0834 13.8942 15.0834 13.6557C15.0834 13.4173 15.0834 13.1192 15.0834 12.7615V9.48882C15.0834 8.83309 15.0773 8.24888 15.0652 7.73621C15.053 7.22355 15.0409 6.84203 15.0287 6.59165H14.8282C14.3664 6.59165 13.9836 6.59762 13.6797 6.60954C13.3759 6.60954 13.1329 6.62146 12.9506 6.64531C12.7683 6.65723 12.6285 6.67511 12.5313 6.69896C12.4462 6.7228 12.3854 6.75261 12.349 6.78838C12.2153 6.84799 12.1059 6.94337 12.0209 7.07452C11.9358 7.20566 11.8811 7.36066 11.8568 7.53949L11.7839 7.61103H11L11.1276 5.2146L11.2005 5.05365L11.3099 5C11.4071 5.03577 11.6198 5.07153 11.9479 5.1073C12.2761 5.13115 12.6346 5.14903 13.0235 5.16095C13.4124 5.17288 13.783 5.1848 14.1355 5.19672C14.5001 5.19672 14.7614 5.19672 14.9193 5.19672H17.2163C17.3743 5.19672 17.6295 5.19672 17.9819 5.19672C18.3465 5.1848 18.7232 5.17288 19.1121 5.16095C19.501 5.14903 19.8595 5.13115 20.1877 5.1073C20.5158 5.07153 20.7285 5.03577 20.8257 5L20.9351 5.05365L21.008 5.2146L21.1538 7.61103H20.3517L20.2788 7.53949C20.2545 7.36066 20.1998 7.20566 20.1148 7.07452C20.0297 6.94337 19.9203 6.84799 19.7866 6.78838C19.7502 6.74069 19.6833 6.70492 19.5861 6.68107C19.501 6.64531 19.3674 6.62146 19.1851 6.60954C19.0028 6.59762 18.7597 6.59165 18.4559 6.59165C18.1642 6.59165 17.7875 6.59165 17.3256 6.59165H17.1251C17.113 6.87779 17.1008 7.25931 17.0887 7.73621C17.0887 8.21311 17.0887 8.79136 17.0887 9.47094V12.4039C17.0887 12.8331 17.0887 13.1848 17.0887 13.459C17.0887 13.7213 17.0887 13.9419 17.0887 14.1207C17.1008 14.2996 17.1069 14.4545 17.1069 14.5857C17.119 14.7049 17.1312 14.8361 17.1434 14.9791C17.1677 15.3249 17.2345 15.5633 17.3439 15.6945C17.4533 15.8256 17.5566 15.927 17.6538 15.9985C17.7024 16.0462 17.7692 16.082 17.8543 16.1058C17.9515 16.1297 18.0548 16.1475 18.1642 16.1595C18.2736 16.1714 18.383 16.1773 18.4923 16.1773C18.6139 16.1773 18.7232 16.1773 18.8205 16.1773L18.9116 16.2489L18.9663 16.9285L18.9298 17Z" fill="#1D67B2"/>
</svg>
