<svg width="32" height="32" viewBox="0 0 32 32" fill="none" xmlns="http://www.w3.org/2000/svg">
    <path d="M0 4C0 1.79086 1.79086 0 4 0H28C30.2091 0 32 1.79086 32 4V28C32 30.2091 30.2091 32 28 32H4C1.79086 32 0 30.2091 0 28V4Z"
          class="fill-gray-0"/>
    <path d="M5 25.5C5 24.6716 5.67157 24 6.5 24H25.5C26.3284 24 27 24.6716 27 25.5C27 26.3284 26.3284 27 25.5 27H6.5C5.67157 27 5 26.3284 5 25.5Z"
          class="fill-ocean-1"/>
    <path d="M5 20.5C5 19.6716 5.67157 19 6.5 19H25.5C26.3284 19 27 19.6716 27 20.5C27 21.3284 26.3284 22 25.5 22H6.5C5.67157 22 5 21.3284 5 20.5Z"
          class="fill-ocean-1"/>
    <path d="M18.5 8.5001L22.4839 6.5086C22.6172 6.44196 22.7654 6.4105 22.9144 6.41721C23.0633 6.42392 23.2081 6.46857 23.3349 6.54693C23.4617 6.6253 23.5665 6.73477 23.6391 6.86497C23.7117 6.99516 23.7499 7.14176 23.75 7.29085V13.2094C23.7499 13.3584 23.7117 13.505 23.6391 13.6352C23.5665 13.7654 23.4617 13.8749 23.3349 13.9533C23.2081 14.0316 23.0633 14.0763 22.9144 14.083C22.7654 14.0897 22.6172 14.0582 22.4839 13.9916L18.5 12.0001V8.5001Z"
          class="stroke-ocean-5" stroke-linecap="round" stroke-linejoin="round"/>
    <path d="M16.75 5H9.75C8.7835 5 8 5.7835 8 6.75V13.75C8 14.7165 8.7835 15.5 9.75 15.5H16.75C17.7165 15.5 18.5 14.7165 18.5 13.75V6.75C18.5 5.7835 17.7165 5 16.75 5Z"
          class="stroke-ocean-5" stroke-linecap="round" stroke-linejoin="round"/>
</svg>
